<svg width="29" height="29" viewBox="0 0 29 29" fill="none" xmlns="http://www.w3.org/2000/svg">
<path d="M13.5212 21.75H15.6962V13.05H13.5212V21.75ZM14.5 10.3675C14.8383 10.3675 15.1223 10.2588 15.3519 10.0413C15.5815 9.82375 15.6962 9.54583 15.6962 9.2075C15.6962 8.86917 15.5815 8.57917 15.3519 8.3375C15.1223 8.09583 14.8383 7.975 14.5 7.975C14.1617 7.975 13.8777 8.09583 13.6481 8.3375C13.4185 8.57917 13.3038 8.86917 13.3038 9.2075C13.3038 9.54583 13.4185 9.82375 13.6481 10.0413C13.8777 10.2588 14.1617 10.3675 14.5 10.3675ZM14.5 29C12.4458 29 10.5367 28.6315 8.7725 27.8944C7.00833 27.1573 5.47375 26.1363 4.16875 24.8313C2.86375 23.5263 1.84271 21.9917 1.10563 20.2275C0.368542 18.4633 0 16.5542 0 14.5C0 12.47 0.368542 10.5729 1.10563 8.80875C1.84271 7.04458 2.86375 5.51 4.16875 4.205C5.47375 2.9 7.00833 1.87292 8.7725 1.12375C10.5367 0.374584 12.4458 0 14.5 0C16.53 0 18.4271 0.374584 20.1913 1.12375C21.9554 1.87292 23.49 2.9 24.795 4.205C26.1 5.51 27.1271 7.04458 27.8763 8.80875C28.6254 10.5729 29 12.47 29 14.5C29 16.5542 28.6254 18.4633 27.8763 20.2275C27.1271 21.9917 26.1 23.5263 24.795 24.8313C23.49 26.1363 21.9554 27.1573 20.1913 27.8944C18.4271 28.6315 16.53 29 14.5 29ZM14.5 26.825C17.8833 26.825 20.7833 25.6167 23.2 23.2C25.6167 20.7833 26.825 17.8833 26.825 14.5C26.825 11.1167 25.6167 8.21667 23.2 5.8C20.7833 3.38333 17.8833 2.175 14.5 2.175C11.1167 2.175 8.21667 3.38333 5.8 5.8C3.38333 8.21667 2.175 11.1167 2.175 14.5C2.175 17.8833 3.38333 20.7833 5.8 23.2C8.21667 25.6167 11.1167 26.825 14.5 26.825Z" fill="white"/>
</svg>
