<svg width="24" height="24" viewBox="0 0 24 24" fill="#d60000" xmlns="http://www.w3.org/2000/svg">
<mask id="mask0_1065_159" style="mask-type:alpha" maskUnits="userSpaceOnUse" x="0" y="0" width="24" height="24">
<rect width="23.0392" height="23.0392" fill="#d60000"/>
</mask>
<g mask="url(#mask0_1065_159)">
<path d="M2.87964 20.1593V18.2394H4.79957V4.79982C4.79957 4.27184 4.98773 3.81969 5.36403 3.44338C5.7397 3.06772 6.19153 2.87988 6.71951 2.87988H16.3192C16.8472 2.87988 17.2993 3.06772 17.6756 3.44338C18.0513 3.81969 18.2391 4.27184 18.2391 4.79982V18.2394H20.159V20.1593H2.87964ZM6.71951 18.2394H16.3192V4.79982H6.71951V18.2394ZM9.59941 12.4796C9.8714 12.4796 10.0996 12.3874 10.2839 12.2031C10.4675 12.0194 10.5594 11.7916 10.5594 11.5196C10.5594 11.2476 10.4675 11.0194 10.2839 10.8351C10.0996 10.6515 9.8714 10.5596 9.59941 10.5596C9.32742 10.5596 9.09959 10.6515 8.91591 10.8351C8.7316 11.0194 8.63944 11.2476 8.63944 11.5196C8.63944 11.7916 8.7316 12.0194 8.91591 12.2031C9.09959 12.3874 9.32742 12.4796 9.59941 12.4796Z" fill="#d60000"/>
</g>
</svg>
