<svg width="104" height="104" viewBox="0 0 104 104" fill="none" xmlns="http://www.w3.org/2000/svg">
<g filter="url(#filter0_d_1064_99)">
<mask id="mask0_1064_99" style="mask-type:alpha" maskUnits="userSpaceOnUse" x="0" y="0" width="104" height="104">
<rect x="0.610352" y="0.374023" width="102.761" height="102.761" fill="#D9D9D9"/>
</mask>
<g mask="url(#mask0_1064_99)">
<path d="M17.3471 84.1265L13.7077 82.6279C11.4955 81.7002 10.0154 80.0946 9.26756 77.811C8.51683 75.5274 8.641 73.2795 9.64006 71.0673L17.3471 54.3687V84.1265ZM34.4739 93.5462C32.119 93.5462 30.1023 92.7085 28.4239 91.0329C26.7483 89.3545 25.9105 87.3378 25.9105 84.9828V59.2927L37.257 90.7631C37.4711 91.2627 37.6852 91.7451 37.8993 92.2104C38.1133 92.6728 38.3988 93.1181 38.7556 93.5462H34.4739ZM56.5246 93.1181C54.2411 93.9744 52.0289 93.8674 49.888 92.797C47.7472 91.7265 46.2486 90.0495 45.3922 87.766L26.3387 35.5292C25.4823 33.2457 25.5537 31.0149 26.5528 28.837C27.5518 26.6618 29.1931 25.1818 31.4767 24.3968L63.8035 12.6222C66.0871 11.7658 68.2993 11.8729 70.4402 12.9433C72.581 14.0137 74.0796 15.6907 74.9359 17.9743L93.9895 70.211C94.8458 72.4946 94.7745 74.7253 93.7754 76.9033C92.7764 79.0784 91.135 80.5584 88.8515 81.3434L56.5246 93.1181ZM47.319 42.1659C48.5322 42.1659 49.5498 41.7548 50.3718 40.9327C51.1911 40.1135 51.6007 39.0973 51.6007 37.8842C51.6007 36.671 51.1911 35.6534 50.3718 34.8313C49.5498 34.0121 48.5322 33.6025 47.319 33.6025C46.1059 33.6025 45.0897 34.0121 44.2704 34.8313C43.4483 35.6534 43.0373 36.671 43.0373 37.8842C43.0373 39.0973 43.4483 40.1135 44.2704 40.9327C45.0897 41.7548 46.1059 42.1659 47.319 42.1659ZM53.5275 84.9828L85.8543 73.2082L66.8007 20.7574L34.4739 32.5321L53.5275 84.9828Z" fill="white"/>
</g>
</g>
<defs>
<filter id="filter0_d_1064_99" x="4.78442" y="12.0513" width="93.7979" height="89.6377" filterUnits="userSpaceOnUse" color-interpolation-filters="sRGB">
<feFlood flood-opacity="0" result="BackgroundImageFix"/>
<feColorMatrix in="SourceAlpha" type="matrix" values="0 0 0 0 0 0 0 0 0 0 0 0 0 0 0 0 0 0 127 0" result="hardAlpha"/>
<feOffset dy="4"/>
<feGaussianBlur stdDeviation="2"/>
<feComposite in2="hardAlpha" operator="out"/>
<feColorMatrix type="matrix" values="0 0 0 0 0 0 0 0 0 0 0 0 0 0 0 0 0 0 0.25 0"/>
<feBlend mode="normal" in2="BackgroundImageFix" result="effect1_dropShadow_1064_99"/>
<feBlend mode="normal" in="SourceGraphic" in2="effect1_dropShadow_1064_99" result="shape"/>
</filter>
</defs>
</svg>
