<svg width="25" height="26" viewBox="0 0 25 26" fill="none" xmlns="http://www.w3.org/2000/svg">
<mask id="mask0_1116_95" style="mask-type:alpha" maskUnits="userSpaceOnUse" x="0" y="0" width="25" height="26">
<rect width="24.2766" height="24.2766" transform="matrix(-1 0 0 1 24.2766 0.924561)" fill="#D9D9D9"/>
</mask>
<g mask="url(#mask0_1116_95)">
<path d="M18.2075 15.0858H6.06917V13.0628H18.2075V15.0858ZM18.2075 12.0513H6.06917V10.0282H18.2075V12.0513ZM18.2075 9.01667H6.06917V6.99362H18.2075V9.01667ZM2.02306 23.178L6.06917 19.1319H20.2305C20.7869 19.1319 21.263 18.934 21.6588 18.5382C22.0553 18.1417 22.2536 17.6652 22.2536 17.1089V4.97056C22.2536 4.41422 22.0553 3.93779 21.6588 3.54128C21.263 3.14543 20.7869 2.94751 20.2305 2.94751H4.04612C3.48978 2.94751 3.01335 3.14543 2.61683 3.54128C2.22099 3.93779 2.02306 4.41422 2.02306 4.97056V23.178ZM20.2305 4.97056V17.1089H5.23466L4.04612 18.2974V4.97056H20.2305Z" fill="white"/>
</g>
</svg>
