<svg width="25" height="25" viewBox="0 0 25 25" fill="none" xmlns="http://www.w3.org/2000/svg">
<mask id="mask0_998_25" style="mask-type:alpha" maskUnits="userSpaceOnUse" x="0" y="0" width="25" height="25">
<rect x="0.748047" y="0.249512" width="24" height="24" fill="#D9D9D9"/>
</mask>
<g mask="url(#mask0_998_25)">
<path d="M2.74805 22.2495V4.24951C2.74805 3.69951 2.94405 3.22851 3.33605 2.83651C3.72738 2.44518 4.19805 2.24951 4.74805 2.24951H20.748C21.298 2.24951 21.769 2.44518 22.161 2.83651C22.5524 3.22851 22.748 3.69951 22.748 4.24951V16.2495C22.748 16.7995 22.5524 17.2705 22.161 17.6625C21.769 18.0538 21.298 18.2495 20.748 18.2495H6.74805L2.74805 22.2495ZM4.74805 17.4245L5.92305 16.2495H20.748V4.24951H4.74805V17.4245Z" fill="white"/>
</g>
</svg>
