<svg width="19" height="19" viewBox="0 0 19 19" fill="none" xmlns="http://www.w3.org/2000/svg">
<g filter="url(#filter0_d_939_102)">
<path d="M6.38547 14.26C6.18343 14.26 5.98968 14.1798 5.84682 14.0369C5.70396 13.8941 5.6237 13.7003 5.6237 13.4983V11.213H4.10018C3.69612 11.213 3.30861 11.0525 3.02289 10.7668C2.73717 10.4811 2.57666 10.0935 2.57666 9.68947V2.07186C2.57666 1.6678 2.73717 1.28028 3.02289 0.994569C3.30861 0.708853 3.69612 0.54834 4.10018 0.54834H14.7648C15.1689 0.54834 15.5564 0.708853 15.8421 0.994569C16.1278 1.28028 16.2884 1.6678 16.2884 2.07186V9.68947C16.2884 10.0935 16.1278 10.4811 15.8421 10.7668C15.5564 11.0525 15.1689 11.213 14.7648 11.213H9.74788L6.92403 14.0368C6.78121 14.1797 6.58748 14.26 6.38547 14.26ZM14.7648 2.07186H4.10018V9.68947H6.38547C6.5875 9.68947 6.78125 9.76973 6.92411 9.91259C7.06697 10.0554 7.14723 10.2492 7.14723 10.4512V11.6594L8.89395 9.91267C9.03677 9.7698 9.2305 9.68952 9.43251 9.68947H14.7648V2.07186Z" fill="white"/>
</g>
<defs>
<filter id="filter0_d_939_102" x="0.685391" y="0.54834" width="17.4945" height="17.4945" filterUnits="userSpaceOnUse" color-interpolation-filters="sRGB">
<feFlood flood-opacity="0" result="BackgroundImageFix"/>
<feColorMatrix in="SourceAlpha" type="matrix" values="0 0 0 0 0 0 0 0 0 0 0 0 0 0 0 0 0 0 127 0" result="hardAlpha"/>
<feOffset dy="1.89127"/>
<feGaussianBlur stdDeviation="0.945634"/>
<feComposite in2="hardAlpha" operator="out"/>
<feColorMatrix type="matrix" values="0 0 0 0 0 0 0 0 0 0 0 0 0 0 0 0 0 0 0.25 0"/>
<feBlend mode="normal" in2="BackgroundImageFix" result="effect1_dropShadow_939_102"/>
<feBlend mode="normal" in="SourceGraphic" in2="effect1_dropShadow_939_102" result="shape"/>
</filter>
</defs>
</svg>
