<svg width="29" height="28" viewBox="0 0 29 28" fill="none" xmlns="http://www.w3.org/2000/svg">
<mask id="mask0_1108_83" style="mask-type:alpha" maskUnits="userSpaceOnUse" x="0" y="0" width="29" height="28">
<rect x="0.838501" y="0.163574" width="27.7444" height="27.7444" fill="#D9D9D9"/>
</mask>
<g mask="url(#mask0_1108_83)">
<path d="M8.93058 24.4402C8.29477 24.4402 7.75067 24.214 7.29828 23.7616C6.84512 23.3084 6.61854 22.7639 6.61854 22.1281V7.09989H5.46252V4.78785H11.2426V3.63184H18.1787V4.78785H23.9588V7.09989H22.8028V22.1281C22.8028 22.7639 22.5766 23.3084 22.1242 23.7616C21.6711 24.214 21.1266 24.4402 20.4908 24.4402H8.93058ZM20.4908 7.09989H8.93058V22.1281H20.4908V7.09989ZM11.2426 19.8161H13.5547V9.41193H11.2426V19.8161ZM15.8667 19.8161H18.1787V9.41193H15.8667V19.8161Z" fill="white"/>
</g>
</svg>
