<svg width="46" height="41" viewBox="0 0 46 41" fill="none" xmlns="http://www.w3.org/2000/svg">
<path d="M12.1539 29.3902C6.81544 29.3902 2.48779 25.2331 2.48779 20.1046C2.48779 14.9781 6.81544 10.8211 12.1539 10.8211C12.9696 7.17143 15.8776 4.19291 19.7818 3.00606C23.6839 1.82128 27.9929 2.6063 31.0814 5.06907C34.1699 7.53391 35.5689 11.2975 34.7552 14.9471H36.8101C40.7807 14.9471 44 18.1783 44 22.1676C44 26.159 40.7807 29.3902 36.808 29.3902H12.1539" stroke="white" stroke-width="3" stroke-linecap="round" stroke-linejoin="round"/>
<path d="M22.6829 29.3902V39.4878" stroke="white" stroke-width="3" stroke-linecap="round" stroke-linejoin="round"/>
<path d="M31.6584 29.3902V37.4682C31.6584 38.0039 31.8712 38.5175 32.2499 38.8963C32.6287 39.275 33.1424 39.4878 33.678 39.4878H41.756" stroke="white" stroke-width="3" stroke-linecap="round" stroke-linejoin="round"/>
<path d="M14.8293 29.3902V37.4682C14.8293 38.0039 14.6165 38.5175 14.2377 38.8963C13.859 39.275 13.3453 39.4878 12.8097 39.4878H4.73169" stroke="white" stroke-width="3" stroke-linecap="round" stroke-linejoin="round"/>
</svg>
