<svg width="4" height="16" viewBox="0 0 4 16" fill="none" xmlns="http://www.w3.org/2000/svg">
<path d="M1.99997 3.99994C3.10452 3.99994 3.99994 3.10452 3.99994 1.99997C3.99994 0.895416 3.10452 0 1.99997 0C0.895416 0 0 0.895416 0 1.99997C0 3.10452 0.895416 3.99994 1.99997 3.99994Z" fill="white"/>
<path d="M1.99997 9.99994C3.10452 9.99994 3.99994 9.10452 3.99994 7.99997C3.99994 6.89542 3.10452 6 1.99997 6C0.895416 6 0 6.89542 0 7.99997C0 9.10452 0.895416 9.99994 1.99997 9.99994Z" fill="white"/>
<path d="M1.99997 15.9994C3.10452 15.9994 3.99994 15.104 3.99994 13.9995C3.99994 12.8949 3.10452 11.9995 1.99997 11.9995C0.895416 11.9995 0 12.8949 0 13.9995C0 15.104 0.895416 15.9994 1.99997 15.9994Z" fill="white"/>
</svg>
