<svg width="29" height="28" viewBox="0 0 29 28" fill="none" xmlns="http://www.w3.org/2000/svg">
<mask id="mask0_1067_209" style="mask-type:alpha" maskUnits="userSpaceOnUse" x="0" y="0" width="29" height="28">
<rect x="0.904175" y="0.663574" width="26.7444" height="26.7444" fill="#D9D9D9" stroke="white"/>
</mask>
<g mask="url(#mask0_1067_209)">
<path d="M5.68423 22.1276V22.6276H6.18423H7.80266H8.00976L8.15621 22.4811L18.1269 12.5105L18.4804 12.1569L18.1269 11.8034L16.5084 10.1849L16.1549 9.8314L15.8013 10.1849L5.83068 20.1556L5.68423 20.3021V20.5092V22.1276ZM22.7132 9.77568L18.5114 5.62332L19.7742 4.36055C20.1204 4.01433 20.5364 3.84229 21.0541 3.84229C21.5709 3.84229 21.9865 4.01421 22.3328 4.36055L23.9513 5.97898C24.3044 6.33208 24.4833 6.74598 24.4987 7.24534C24.5137 7.73312 24.3548 8.13412 24.0091 8.47982L22.7132 9.77568ZM16.126 7.97986L20.332 12.1858L8.57817 23.9396H4.37219V19.7337L16.126 7.97986Z" fill="white" stroke="white"/>
</g>
</svg>
