<svg width="41" height="41" viewBox="0 0 41 41" fill="none" xmlns="http://www.w3.org/2000/svg">
<mask id="mask0_943_176" style="mask-type:alpha" maskUnits="userSpaceOnUse" x="0" y="0" width="41" height="41">
<rect x="0.258301" y="0.932129" width="40" height="40" fill="#D9D9D9"/>
</mask>
<g mask="url(#mask0_943_176)">
<path d="M11.4253 29.7651L23.3833 24.0991L29.0913 12.0991L17.0913 17.8071L11.4253 29.7651ZM20.2583 22.5571C19.7863 22.5571 19.3973 22.4045 19.0913 22.0991C18.786 21.7931 18.6333 21.4041 18.6333 20.9321C18.6333 20.4601 18.786 20.0711 19.0913 19.7651C19.3973 19.4598 19.7863 19.3071 20.2583 19.3071C20.7303 19.3071 21.1193 19.4598 21.4253 19.7651C21.7306 20.0711 21.8833 20.4601 21.8833 20.9321C21.8833 21.4041 21.7306 21.7931 21.4253 22.0991C21.1193 22.4045 20.7303 22.5571 20.2583 22.5571ZM20.2583 37.5991C17.953 37.5991 15.7863 37.1615 13.7583 36.2861C11.7303 35.4115 9.96631 34.2171 8.46631 32.7031C6.96631 31.1891 5.77898 29.4251 4.90431 27.4111C4.02898 25.3971 3.59131 23.2375 3.59131 20.9321C3.59131 18.6268 4.02898 16.4601 4.90431 14.4321C5.77898 12.4041 6.97331 10.6401 8.48731 9.14014C10.0013 7.64014 11.7653 6.4528 13.7793 5.57814C15.7933 4.7028 17.953 4.26514 20.2583 4.26514C22.5636 4.26514 24.7303 4.7028 26.7583 5.57814C28.7863 6.4528 30.5503 7.64014 32.0503 9.14014C33.5503 10.6401 34.7376 12.4041 35.6123 14.4321C36.4876 16.4601 36.9253 18.6268 36.9253 20.9321C36.9253 23.2375 36.4876 25.4041 35.6123 27.4321C34.7376 29.4601 33.5503 31.2241 32.0503 32.7241C30.5503 34.2241 28.7863 35.4115 26.7583 36.2861C24.7303 37.1615 22.5636 37.5991 20.2583 37.5991ZM20.2583 34.5991C24.0636 34.5991 27.293 33.2658 29.9463 30.5991C32.599 27.9325 33.9253 24.7101 33.9253 20.9321C33.9253 17.1268 32.599 13.8978 29.9463 11.2451C27.293 8.5918 24.0636 7.26514 20.2583 7.26514C16.4803 7.26514 13.258 8.5918 10.5913 11.2451C7.92464 13.8978 6.59131 17.1268 6.59131 20.9321C6.59131 24.7101 7.92464 27.9325 10.5913 30.5991C13.258 33.2658 16.4803 34.5991 20.2583 34.5991Z" fill="white"/>
</g>
</svg>
