<svg width="104" height="104" viewBox="0 0 104 104" fill="none" xmlns="http://www.w3.org/2000/svg">
<mask id="mask0_1065_125" style="mask-type:alpha" maskUnits="userSpaceOnUse" x="0" y="0" width="104" height="104">
<rect x="0.621094" y="0.374023" width="102.761" height="102.761" fill="#D9D9D9"/>
</mask>
<g mask="url(#mask0_1065_125)">
<path d="M34.8748 68.8813H86.2551V17.5009H77.6917V47.4728L66.9875 41.0502L56.2832 47.4728V17.5009H34.8748V68.8813ZM34.8748 77.4447C32.5198 77.4447 30.5046 76.6069 28.829 74.9313C27.1506 73.2529 26.3114 71.2362 26.3114 68.8813V17.5009C26.3114 15.146 27.1506 13.1293 28.829 11.4509C30.5046 9.77528 32.5198 8.9375 34.8748 8.9375H86.2551C88.6101 8.9375 90.6267 9.77528 92.3052 11.4509C93.9807 13.1293 94.8185 15.146 94.8185 17.5009V68.8813C94.8185 71.2362 93.9807 73.2529 92.3052 74.9313C90.6267 76.6069 88.6101 77.4447 86.2551 77.4447H34.8748ZM17.748 94.5714C15.393 94.5714 13.3778 93.7337 11.7022 92.0581C10.0238 90.3797 9.18457 88.363 9.18457 86.008V26.0643H17.748V86.008H77.6917V94.5714H17.748Z" fill="white"/>
</g>
</svg>
