<svg width="44" height="41" viewBox="0 0 44 41" fill="none" xmlns="http://www.w3.org/2000/svg">
<path d="M29.45 22.3L27.25 20.1C28.1167 17.7333 27.6667 15.7667 25.9 14.2C24.1333 12.6333 22.2167 12.2333 20.15 13L17.95 10.8C18.5167 10.4333 19.15 10.1667 19.85 10C20.55 9.83333 21.2667 9.75 22 9.75C24.3667 9.75 26.375 10.575 28.025 12.225C29.675 13.875 30.5 15.8833 30.5 18.25C30.5 18.9833 30.4083 19.7083 30.225 20.425C30.0417 21.1417 29.7833 21.7667 29.45 22.3ZM35.9 28.75L33.9 26.75C35.5333 25.55 36.9583 24.2083 38.175 22.725C39.3917 21.2417 40.2833 19.75 40.85 18.25C39.1833 14.55 36.6833 11.625 33.35 9.475C30.0167 7.325 26.4 6.25 22.5 6.25C21.1 6.25 19.6667 6.38333 18.2 6.65C16.7333 6.91667 15.5833 7.23333 14.75 7.6L12.45 5.25C13.6167 4.71667 15.1083 4.25 16.925 3.85C18.7417 3.45 20.5167 3.25 22.25 3.25C27.0167 3.25 31.375 4.60833 35.325 7.325C39.275 10.0417 42.1667 13.6833 44 18.25C43.1333 20.3833 42.0167 22.3333 40.65 24.1C39.2833 25.8667 37.7 27.4167 35.9 28.75ZM38.8 40.05L30.4 31.8C29.2333 32.2667 27.9167 32.625 26.45 32.875C24.9833 33.125 23.5 33.25 22 33.25C17.1333 33.25 12.7167 31.8917 8.75 29.175C4.78333 26.4583 1.86667 22.8167 0 18.25C0.666667 16.5167 1.59167 14.825 2.775 13.175C3.95833 11.525 5.4 9.95 7.1 8.45L0.8 2.15L2.9 0L40.75 37.85L38.8 40.05ZM9.15 10.55C7.91667 11.45 6.725 12.6333 5.575 14.1C4.425 15.5667 3.6 16.95 3.1 18.25C4.8 21.95 7.35833 24.875 10.775 27.025C14.1917 29.175 18.0667 30.25 22.4 30.25C23.5 30.25 24.5833 30.1833 25.65 30.05C26.7167 29.9167 27.5167 29.7167 28.05 29.45L24.85 26.25C24.4833 26.4167 24.0333 26.5417 23.5 26.625C22.9667 26.7083 22.4667 26.75 22 26.75C19.6667 26.75 17.6667 25.9333 16 24.3C14.3333 22.6667 13.5 20.65 13.5 18.25C13.5 17.75 13.5417 17.25 13.625 16.75C13.7083 16.25 13.8333 15.8 14 15.4L9.15 10.55Z" fill="white"/>
</svg>
