<svg width="11" height="22" viewBox="0 0 11 22" fill="none" xmlns="http://www.w3.org/2000/svg">
<path d="M0.627627 11.6145H2.88544V20.9096C2.88544 21.0931 3.03414 21.2418 3.21765 21.2418H7.04585C7.22937 21.2418 7.37807 21.0931 7.37807 20.9096V11.6583H9.97361C10.1424 11.6583 10.2844 11.5317 10.3036 11.364L10.6978 7.94208C10.7087 7.84793 10.6788 7.75365 10.6159 7.68302C10.5528 7.61233 10.4626 7.57186 10.3679 7.57186H7.3782V5.42681C7.3782 4.78018 7.72636 4.45228 8.41312 4.45228C8.51099 4.45228 10.3679 4.45228 10.3679 4.45228C10.5514 4.45228 10.7001 4.30351 10.7001 4.12006V0.979023C10.7001 0.795507 10.5514 0.646807 10.3679 0.646807H7.67394C7.65494 0.645876 7.61275 0.644348 7.55055 0.644348C7.08313 0.644348 5.45839 0.736106 4.17497 1.9168C2.75295 3.22521 2.95062 4.79181 2.99786 5.06343V7.5718H0.627627C0.44411 7.5718 0.29541 7.7205 0.29541 7.90401V11.2823C0.29541 11.4658 0.44411 11.6145 0.627627 11.6145Z" fill="#9D9A9A"/>
</svg>
