<svg width="41" height="41" viewBox="0 0 41 41" fill="none" xmlns="http://www.w3.org/2000/svg">
<path d="M5.2168 39.0991V11.4321C5.2168 10.5988 5.51547 9.88345 6.1128 9.28612C6.71013 8.68879 7.41147 8.39012 8.2168 8.39012H26.6338C27.4391 8.39012 28.1475 8.68879 28.7588 9.28612C29.3701 9.88345 29.6758 10.5988 29.6758 11.4321V39.0991L17.4258 33.8901L5.2168 39.0991ZM8.2168 34.5151L17.4258 30.5151L26.6338 34.5151V11.4321H8.2168V34.5151ZM32.3008 34.5991V5.76512H10.6758V2.72412H32.3008C33.1061 2.72412 33.8075 3.02945 34.4048 3.64012C35.0021 4.25145 35.3008 4.95979 35.3008 5.76512V34.5991H32.3008Z" fill="white"/>
<path d="M8 10H27V35.1253L17.5 30.5L8 34.7046V10Z" fill="white"/>
</svg>
