<svg width="41" height="41" viewBox="0 0 41 41" fill="none" xmlns="http://www.w3.org/2000/svg">
<mask id="mask0_943_170" style="mask-type:alpha" maskUnits="userSpaceOnUse" x="0" y="0" width="41" height="41">
<rect x="0.258301" y="0.932129" width="40" height="40" fill="#D9D9D9"/>
</mask>
<g mask="url(#mask0_943_170)">
<path d="M5.21631 39.0991V11.4321C5.21631 10.5988 5.51498 9.88345 6.11231 9.28612C6.70964 8.68879 7.41098 8.39012 8.21631 8.39012H26.6333C27.4386 8.39012 28.147 8.68879 28.7583 9.28612C29.3696 9.88345 29.6753 10.5988 29.6753 11.4321V39.0991L17.4253 33.8901L5.21631 39.0991ZM8.21631 34.5151L17.4253 30.5151L26.6333 34.5151V11.4321H8.21631V34.5151ZM32.3003 34.5991V5.76512H10.6753V2.72412H32.3003C33.1056 2.72412 33.807 3.02945 34.4043 3.64012C35.0016 4.25145 35.3003 4.95979 35.3003 5.76512V34.5991H32.3003Z" fill="white"/>
</g>
</svg>
