<svg width="55" height="55" viewBox="0 0 55 55" fill="none" xmlns="http://www.w3.org/2000/svg">
<path d="M12.375 10.835H23.375C24.145 10.835 24.75 11.44 24.75 12.21V42.4049C24.75 43.1749 24.145 43.7799 23.375 43.7799H12.375C11.605 43.7799 11 43.1749 11 42.4049V12.21C11 11.44 11.605 10.835 12.375 10.835Z" fill="white"/>
<path d="M31.625 10.7798H42.625C43.395 10.7798 44 11.3848 44 12.1548V23.0998C44 23.8698 43.395 24.4748 42.625 24.4748H31.625C30.855 24.4748 30.25 23.8698 30.25 23.0998V12.1548C30.25 11.3848 30.855 10.7798 31.625 10.7798Z" fill="white"/>
<path d="M31.625 30.0298H42.625C43.395 30.0298 44 30.6348 44 31.4048V42.3498C44 43.1198 43.395 43.7248 42.625 43.7248H31.625C30.855 43.7248 30.25 43.1198 30.25 42.3498V31.4048C30.25 30.6898 30.855 30.0298 31.625 30.0298Z" fill="white"/>
</svg>
