<svg width="29" height="21" viewBox="0 0 29 21" fill="white" xmlns="http://www.w3.org/2000/svg">
<path d="M27.4737 3H1.52632C1.12151 3 0.733287 2.84196 0.447047 2.56066C0.160808 2.27936 0 1.89782 0 1.5C0 1.10218 0.160808 0.720645 0.447047 0.43934C0.733287 0.158036 1.12151 0 1.52632 0H27.4737C27.8785 0 28.2667 0.158036 28.553 0.43934C28.8392 0.720645 29 1.10218 29 1.5C29 1.89782 28.8392 2.27936 28.553 2.56066C28.2667 2.84196 27.8785 3 27.4737 3Z" fill="white"/>
<path d="M27.4737 12H1.52632C1.12151 12 0.733287 11.842 0.447047 11.5607C0.160808 11.2794 0 10.8978 0 10.5C0 10.1022 0.160808 9.72064 0.447047 9.43934C0.733287 9.15804 1.12151 9 1.52632 9H27.4737C27.8785 9 28.2667 9.15804 28.553 9.43934C28.8392 9.72064 29 10.1022 29 10.5C29 10.8978 28.8392 11.2794 28.553 11.5607C28.2667 11.842 27.8785 12 27.4737 12Z" fill="white"/>
<path d="M27.4737 21H1.52632C1.12151 21 0.733287 20.842 0.447047 20.5607C0.160808 20.2794 0 19.8978 0 19.5C0 19.1022 0.160808 18.7206 0.447047 18.4393C0.733287 18.158 1.12151 18 1.52632 18H27.4737C27.8785 18 28.2667 18.158 28.553 18.4393C28.8392 18.7206 29 19.1022 29 19.5C29 19.8978 28.8392 20.2794 28.553 20.5607C28.2667 20.842 27.8785 21 27.4737 21Z" fill="white"/>
</svg>
