<svg width="30" height="31" viewBox="0 0 30 31" fill="none" xmlns="http://www.w3.org/2000/svg">
<path d="M19.7463 5.64413H10.0013C7.31028 5.64413 5.12878 7.82563 5.12878 10.5166V20.2617C5.12878 22.9527 7.31028 25.1342 10.0013 25.1342H19.7463C22.4373 25.1342 24.6188 22.9527 24.6188 20.2617V10.5166C24.6188 7.82563 22.4373 5.64413 19.7463 5.64413Z" stroke="#9D9A9A" stroke-width="2" stroke-linecap="round" stroke-linejoin="round"/>
<path d="M14.8738 19.0435C16.8921 19.0435 18.5282 17.4074 18.5282 15.3892C18.5282 13.3709 16.8921 11.7348 14.8738 11.7348C12.8555 11.7348 11.2194 13.3709 11.2194 15.3892C11.2194 17.4074 12.8555 19.0435 14.8738 19.0435Z" stroke="#9D9A9A" stroke-width="2" stroke-linecap="round" stroke-linejoin="round"/>
<path d="M20.3554 9.90759V9.90859" stroke="#9D9A9A" stroke-width="2.75" stroke-linecap="round" stroke-linejoin="round"/>
</svg>
