<svg width="29" height="28" viewBox="0 0 29 28" fill="none" xmlns="http://www.w3.org/2000/svg">
<mask id="mask0_1108_89" style="mask-type:alpha" maskUnits="userSpaceOnUse" x="0" y="0" width="29" height="28">
<rect x="0.969849" y="0.163574" width="27.7444" height="27.7444" fill="#D9D9D9"/>
</mask>
<g mask="url(#mask0_1108_89)">
<path d="M14.8421 18.6598C16.2871 18.6598 17.5155 18.1543 18.5274 17.1431C19.5386 16.1312 20.0441 14.9028 20.0441 13.4577C20.0441 12.0127 19.5386 10.7843 18.5274 9.77235C17.5155 8.76122 16.2871 8.25565 14.8421 8.25565C13.397 8.25565 12.1686 8.76122 11.1567 9.77235C10.1455 10.7843 9.63998 12.0127 9.63998 13.4577C9.63998 14.9028 10.1455 16.1312 11.1567 17.1431C12.1686 18.1543 13.397 18.6598 14.8421 18.6598ZM14.8421 16.579C13.975 16.579 13.2383 16.2753 12.6318 15.668C12.0245 15.0615 11.7208 14.3248 11.7208 13.4577C11.7208 12.5907 12.0245 11.8536 12.6318 11.2463C13.2383 10.6397 13.975 10.3365 14.8421 10.3365C15.7091 10.3365 16.4462 10.6397 17.0535 11.2463C17.66 11.8536 17.9633 12.5907 17.9633 13.4577C17.9633 14.3248 17.66 15.0615 17.0535 15.668C16.4462 16.2753 15.7091 16.579 14.8421 16.579ZM14.8421 22.1279C12.0291 22.1279 9.46657 21.3426 7.15454 19.7719C4.8425 18.202 3.16627 16.0973 2.12585 13.4577C3.16627 10.8182 4.8425 8.71305 7.15454 7.14241C9.46657 5.57253 12.0291 4.7876 14.8421 4.7876C17.655 4.7876 20.2175 5.57253 22.5296 7.14241C24.8416 8.71305 26.5178 10.8182 27.5583 13.4577C26.5178 16.0973 24.8416 18.202 22.5296 19.7719C20.2175 21.3426 17.655 22.1279 14.8421 22.1279ZM14.8421 19.8158C17.0192 19.8158 19.0184 19.2425 20.8395 18.0957C22.6598 16.9497 24.0517 15.4037 25.015 13.4577C24.0517 11.5118 22.6598 9.96541 20.8395 8.81863C19.0184 7.67264 17.0192 7.09964 14.8421 7.09964C12.6649 7.09964 10.6658 7.67264 8.84464 8.81863C7.02429 9.96541 5.63244 11.5118 4.6691 13.4577C5.63244 15.4037 7.02429 16.9497 8.84464 18.0957C10.6658 19.2425 12.6649 19.8158 14.8421 19.8158Z" fill="white"/>
</g>
</svg>
