<svg width="25" height="25" viewBox="0 0 25 25" fill="none" xmlns="http://www.w3.org/2000/svg">
<mask id="mask0_1157_7" style="mask-type:alpha" maskUnits="userSpaceOnUse" x="0" y="0" width="25" height="25">
<rect x="0.0324707" y="0.536621" width="24" height="24" fill="#D9D9D9"/>
</mask>
<g mask="url(#mask0_1157_7)">
<path d="M12.0325 22.5366C10.6658 22.5366 9.37414 22.274 8.15747 21.7486C6.9408 21.224 5.87847 20.5073 4.97047 19.5986C4.0618 18.6906 3.34514 17.6283 2.82047 16.4116C2.29514 15.195 2.03247 13.9033 2.03247 12.5366C2.03247 11.1533 2.29514 9.85762 2.82047 8.64962C3.34514 7.44095 4.0618 6.38262 4.97047 5.47462C5.87847 4.56595 6.9408 3.84895 8.15747 3.32362C9.37414 2.79895 10.6658 2.53662 12.0325 2.53662C13.4158 2.53662 14.7115 2.79895 15.9195 3.32362C17.1281 3.84895 18.1865 4.56595 19.0945 5.47462C20.0031 6.38262 20.7198 7.44095 21.2445 8.64962C21.7698 9.85762 22.0325 11.1533 22.0325 12.5366C22.0325 13.9033 21.7698 15.195 21.2445 16.4116C20.7198 17.6283 20.0031 18.6906 19.0945 19.5986C18.1865 20.5073 17.1281 21.224 15.9195 21.7486C14.7115 22.274 13.4158 22.5366 12.0325 22.5366ZM12.0325 20.4866C12.4658 19.8866 12.8408 19.2616 13.1575 18.6116C13.4741 17.9616 13.7325 17.27 13.9325 16.5366H10.1325C10.3325 17.27 10.5908 17.9616 10.9075 18.6116C11.2241 19.2616 11.5991 19.8866 12.0325 20.4866ZM9.43247 20.0866C9.13247 19.5366 8.87014 18.9656 8.64547 18.3736C8.42014 17.7823 8.23247 17.17 8.08247 16.5366H5.13247C5.6158 17.37 6.2198 18.095 6.94447 18.7116C7.6698 19.3283 8.49914 19.7866 9.43247 20.0866ZM14.6325 20.0866C15.5658 19.7866 16.3948 19.3283 17.1195 18.7116C17.8448 18.095 18.4491 17.37 18.9325 16.5366H15.9825C15.8325 17.17 15.6451 17.7823 15.4205 18.3736C15.1951 18.9656 14.9325 19.5366 14.6325 20.0866ZM4.28247 14.5366H7.68247C7.63247 14.2033 7.5948 13.874 7.56947 13.5486C7.5448 13.224 7.53247 12.8866 7.53247 12.5366C7.53247 12.1866 7.5448 11.8493 7.56947 11.5246C7.5948 11.1993 7.63247 10.87 7.68247 10.5366H4.28247C4.19914 10.87 4.13647 11.1993 4.09447 11.5246C4.05314 11.8493 4.03247 12.1866 4.03247 12.5366C4.03247 12.8866 4.05314 13.224 4.09447 13.5486C4.13647 13.874 4.19914 14.2033 4.28247 14.5366ZM9.68247 14.5366H14.3825C14.4325 14.2033 14.4701 13.874 14.4955 13.5486C14.5201 13.224 14.5325 12.8866 14.5325 12.5366C14.5325 12.1866 14.5201 11.8493 14.4955 11.5246C14.4701 11.1993 14.4325 10.87 14.3825 10.5366H9.68247C9.63247 10.87 9.59514 11.1993 9.57047 11.5246C9.54514 11.8493 9.53247 12.1866 9.53247 12.5366C9.53247 12.8866 9.54514 13.224 9.57047 13.5486C9.59514 13.874 9.63247 14.2033 9.68247 14.5366ZM16.3825 14.5366H19.7825C19.8658 14.2033 19.9285 13.874 19.9705 13.5486C20.0118 13.224 20.0325 12.8866 20.0325 12.5366C20.0325 12.1866 20.0118 11.8493 19.9705 11.5246C19.9285 11.1993 19.8658 10.87 19.7825 10.5366H16.3825C16.4325 10.87 16.4698 11.1993 16.4945 11.5246C16.5198 11.8493 16.5325 12.1866 16.5325 12.5366C16.5325 12.8866 16.5198 13.224 16.4945 13.5486C16.4698 13.874 16.4325 14.2033 16.3825 14.5366ZM15.9825 8.53662H18.9325C18.4491 7.70329 17.8448 6.97829 17.1195 6.36162C16.3948 5.74495 15.5658 5.28662 14.6325 4.98662C14.9325 5.53662 15.1951 6.10729 15.4205 6.69862C15.6451 7.29062 15.8325 7.90329 15.9825 8.53662ZM10.1325 8.53662H13.9325C13.7325 7.80329 13.4741 7.11162 13.1575 6.46162C12.8408 5.81162 12.4658 5.18662 12.0325 4.58662C11.5991 5.18662 11.2241 5.81162 10.9075 6.46162C10.5908 7.11162 10.3325 7.80329 10.1325 8.53662ZM5.13247 8.53662H8.08247C8.23247 7.90329 8.42014 7.29062 8.64547 6.69862C8.87014 6.10729 9.13247 5.53662 9.43247 4.98662C8.49914 5.28662 7.6698 5.74495 6.94447 6.36162C6.2198 6.97829 5.6158 7.70329 5.13247 8.53662Z" fill="white"/>
</g>
</svg>
