<svg width="89" height="76" viewBox="0 0 89 76" fill="none" xmlns="http://www.w3.org/2000/svg">
<path d="M58.9 76L40.9556 58.0556L46.8667 52.1444L58.9 64.1778L82.7556 40.3222L88.6667 46.2333L58.9 76ZM42.2222 29.5556L76 8.44444H8.44444L42.2222 29.5556ZM42.2222 38L8.44444 16.8889V59.1111H30.1889L38.6333 67.5556H8.44444C6.12222 67.5556 4.13496 66.7294 2.48267 65.0771C0.827556 63.422 0 61.4333 0 59.1111V8.44444C0 6.12222 0.827556 4.13496 2.48267 2.48267C4.13496 0.827555 6.12222 0 8.44444 0H76C78.3222 0 80.3109 0.827555 81.966 2.48267C83.6183 4.13496 84.4444 6.12222 84.4444 8.44444V26.8111L76 35.2556V16.8889L42.2222 38Z" fill="white"/>
</svg>
