<svg width="36" height="40" viewBox="0 0 36 40" fill="none" xmlns="http://www.w3.org/2000/svg">
<path d="M8.3 31.55H11.3L24.05 18.8L21.1 15.75L8.3 28.55V31.55ZM24.95 17.9L26.9 15.95C27.1333 15.7167 27.2583 15.4583 27.275 15.175C27.2917 14.8917 27.1667 14.6167 26.9 14.35L25.45 12.95C25.1833 12.6833 24.9167 12.5583 24.65 12.575C24.3833 12.5917 24.1333 12.7167 23.9 12.95L22 14.85L24.95 17.9ZM3 37H33V7H3V37ZM3 7V37V7ZM3 40C2.16667 40 1.45833 39.7083 0.875 39.125C0.291667 38.5417 0 37.8333 0 37V7C0 6.16667 0.291667 5.45833 0.875 4.875C1.45833 4.29167 2.16667 4 3 4H13.25C13.4167 2.83333 13.95 1.875 14.85 1.125C15.75 0.375 16.8 0 18 0C19.2 0 20.25 0.375 21.15 1.125C22.05 1.875 22.5833 2.83333 22.75 4H33C33.8333 4 34.5417 4.29167 35.125 4.875C35.7083 5.45833 36 6.16667 36 7V37C36 37.8333 35.7083 38.5417 35.125 39.125C34.5417 39.7083 33.8333 40 33 40H3ZM18 6.15C18.4667 6.15 18.875 5.975 19.225 5.625C19.575 5.275 19.75 4.86667 19.75 4.4C19.75 3.93333 19.575 3.525 19.225 3.175C18.875 2.825 18.4667 2.65 18 2.65C17.5333 2.65 17.125 2.825 16.775 3.175C16.425 3.525 16.25 3.93333 16.25 4.4C16.25 4.86667 16.425 5.275 16.775 5.625C17.125 5.975 17.5333 6.15 18 6.15Z" fill="black"/>
</svg>
