<svg width="55" height="55" viewBox="0 0 55 55" fill="none" xmlns="http://www.w3.org/2000/svg">
<rect x="2.2449" y="2.2449" width="50.5102" height="50.5102" rx="25.2551" fill="black" stroke="white" stroke-width="4.4898"/>
<path d="M14.0303 32.3642C12.847 32.3642 11.8344 31.9426 10.9925 31.0992C10.1492 30.2573 9.72754 29.2448 9.72754 28.0615C9.72754 26.8783 10.1492 25.865 10.9925 25.0216C11.8344 24.1797 12.847 23.7588 14.0303 23.7588C15.2135 23.7588 16.2261 24.1797 17.068 25.0216C17.9113 25.865 18.333 26.8783 18.333 28.0615C18.333 29.2448 17.9113 30.2573 17.068 31.0992C16.2261 31.9426 15.2135 32.3642 14.0303 32.3642ZM26.9384 32.3642C25.7552 32.3642 24.7426 31.9426 23.9007 31.0992C23.0574 30.2573 22.6357 29.2448 22.6357 28.0615C22.6357 26.8783 23.0574 25.865 23.9007 25.0216C24.7426 24.1797 25.7552 23.7588 26.9384 23.7588C28.1217 23.7588 29.135 24.1797 29.9783 25.0216C30.8202 25.865 31.2411 26.8783 31.2411 28.0615C31.2411 29.2448 30.8202 30.2573 29.9783 31.0992C29.135 31.9426 28.1217 32.3642 26.9384 32.3642ZM39.8466 32.3642C38.6633 32.3642 37.65 31.9426 36.8067 31.0992C35.9648 30.2573 35.5439 29.2448 35.5439 28.0615C35.5439 26.8783 35.9648 25.865 36.8067 25.0216C37.65 24.1797 38.6633 23.7588 39.8466 23.7588C41.0298 23.7588 42.0431 24.1797 42.8865 25.0216C43.7284 25.865 44.1493 26.8783 44.1493 28.0615C44.1493 29.2448 43.7284 30.2573 42.8865 31.0992C42.0431 31.9426 41.0298 32.3642 39.8466 32.3642Z" fill="white"/>
</svg>
