<svg width="45" height="32" viewBox="0 0 45 32" fill="none" xmlns="http://www.w3.org/2000/svg">
<path d="M0 31.05V26.35C0 25.1833 0.3 24.125 0.9 23.175C1.5 22.225 2.33333 21.5167 3.4 21.05C5.83333 19.9833 8.025 19.2167 9.975 18.75C11.925 18.2833 13.9333 18.05 16 18.05C18.0667 18.05 20.0667 18.2833 22 18.75C23.9333 19.2167 26.1167 19.9833 28.55 21.05C29.6167 21.5167 30.4583 22.225 31.075 23.175C31.6917 24.125 32 25.1833 32 26.35V31.05H0ZM29.2 17.9C31.5 18.1667 33.6667 18.5583 35.7 19.075C37.7333 19.5917 39.3833 20.1833 40.65 20.85C41.75 21.4833 42.6167 22.2667 43.25 23.2C43.8833 24.1333 44.2 25.1833 44.2 26.35V31.05H35V26.35C35 24.25 34.4667 22.525 33.4 21.175C32.3333 19.825 30.9333 18.7333 29.2 17.9ZM16 15C13.8 15 12 14.3 10.6 12.9C9.2 11.5 8.5 9.7 8.5 7.5C8.5 5.3 9.2 3.5 10.6 2.1C12 0.7 13.8 0 16 0C18.2 0 20 0.7 21.4 2.1C22.8 3.5 23.5 5.3 23.5 7.5C23.5 9.7 22.8 11.5 21.4 12.9C20 14.3 18.2 15 16 15ZM34 7.5C34 9.7 33.3 11.5 31.9 12.9C30.5 14.3 28.7 15 26.5 15C26.1333 15 25.725 14.975 25.275 14.925C24.825 14.875 24.4167 14.7833 24.05 14.65C24.85 13.8167 25.4583 12.7917 25.875 11.575C26.2917 10.3583 26.5 9 26.5 7.5C26.5 6 26.2917 4.675 25.875 3.525C25.4583 2.375 24.85 1.31667 24.05 0.35C24.4167 0.25 24.825 0.166667 25.275 0.1C25.725 0.0333337 26.1333 0 26.5 0C28.7 0 30.5 0.7 31.9 2.1C33.3 3.5 34 5.3 34 7.5ZM3 28.05H29V26.35C29 25.8167 28.8417 25.3 28.525 24.8C28.2083 24.3 27.8167 23.95 27.35 23.75C24.95 22.6833 22.9333 21.9667 21.3 21.6C19.6667 21.2333 17.9 21.05 16 21.05C14.1 21.05 12.325 21.2333 10.675 21.6C9.025 21.9667 7 22.6833 4.6 23.75C4.13333 23.95 3.75 24.3 3.45 24.8C3.15 25.3 3 25.8167 3 26.35V28.05ZM16 12C17.3 12 18.375 11.575 19.225 10.725C20.075 9.875 20.5 8.8 20.5 7.5C20.5 6.2 20.075 5.125 19.225 4.275C18.375 3.425 17.3 3 16 3C14.7 3 13.625 3.425 12.775 4.275C11.925 5.125 11.5 6.2 11.5 7.5C11.5 8.8 11.925 9.875 12.775 10.725C13.625 11.575 14.7 12 16 12Z" fill="black"/>
</svg>
