<svg width="32" height="32" viewBox="0 0 32 32" fill="none" xmlns="http://www.w3.org/2000/svg">
<path d="M30.0444 32L18.3556 20.3111C17.4667 21.0815 16.4296 21.6815 15.2444 22.1111C14.0593 22.5407 12.8 22.7556 11.4667 22.7556C8.26667 22.7556 5.55556 21.6444 3.33333 19.4222C1.11111 17.2 0 14.5185 0 11.3778C0 8.23704 1.11111 5.55556 3.33333 3.33333C5.55556 1.11111 8.25185 0 11.4222 0C14.563 0 17.237 1.11111 19.4444 3.33333C21.6519 5.55556 22.7556 8.23704 22.7556 11.3778C22.7556 12.6519 22.5481 13.8815 22.1333 15.0667C21.7185 16.2519 21.0963 17.363 20.2667 18.4L32 30.0444L30.0444 32ZM11.4222 20.0889C13.8222 20.0889 15.8667 19.237 17.5556 17.5333C19.2444 15.8296 20.0889 13.7778 20.0889 11.3778C20.0889 8.97778 19.2444 6.92593 17.5556 5.22222C15.8667 3.51852 13.8222 2.66667 11.4222 2.66667C8.99259 2.66667 6.92593 3.51852 5.22222 5.22222C3.51852 6.92593 2.66667 8.97778 2.66667 11.3778C2.66667 13.7778 3.51852 15.8296 5.22222 17.5333C6.92593 19.237 8.99259 20.0889 11.4222 20.0889Z" fill="white"/>
</svg>
