<svg width="25" height="25" viewBox="0 0 25 25" fill="none" xmlns="http://www.w3.org/2000/svg">
<mask id="mask0_956_188" style="mask-type:alpha" maskUnits="userSpaceOnUse" x="0" y="0" width="25" height="25">
<rect x="0.547363" y="0.553711" width="24" height="24" fill="#D9D9D9"/>
</mask>
<g mask="url(#mask0_956_188)">
<path d="M9.79756 22.5537L9.39756 19.3537C9.18089 19.2704 8.97689 19.1704 8.78556 19.0537C8.59356 18.937 8.40589 18.812 8.22256 18.6787L5.24756 19.9287L2.49756 15.1787L5.07256 13.2287C5.05589 13.112 5.04756 12.9994 5.04756 12.8907V12.2157C5.04756 12.1077 5.05589 11.9954 5.07256 11.8787L2.49756 9.92871L5.24756 5.17871L8.22256 6.42871C8.40589 6.29538 8.59756 6.17038 8.79756 6.05371C8.99756 5.93704 9.19756 5.83704 9.39756 5.75371L9.79756 2.55371H15.2976L15.6976 5.75371C15.9142 5.83704 16.1186 5.93704 16.3106 6.05371C16.5019 6.17038 16.6892 6.29538 16.8726 6.42871L19.8476 5.17871L22.5976 9.92871L20.0226 11.8787C20.0392 11.9954 20.0476 12.1077 20.0476 12.2157V12.8907C20.0476 12.9994 20.0309 13.112 19.9976 13.2287L22.5726 15.1787L19.8226 19.9287L16.8726 18.6787C16.6892 18.812 16.4976 18.937 16.2976 19.0537C16.0976 19.1704 15.8976 19.2704 15.6976 19.3537L15.2976 22.5537H9.79756ZM12.5976 16.0537C13.5642 16.0537 14.3892 15.712 15.0726 15.0287C15.7559 14.3454 16.0976 13.5204 16.0976 12.5537C16.0976 11.587 15.7559 10.762 15.0726 10.0787C14.3892 9.39538 13.5642 9.05371 12.5976 9.05371C11.6142 9.05371 10.7849 9.39538 10.1096 10.0787C9.43489 10.762 9.09756 11.587 9.09756 12.5537C9.09756 13.5204 9.43489 14.3454 10.1096 15.0287C10.7849 15.712 11.6142 16.0537 12.5976 16.0537ZM12.5976 14.0537C12.1809 14.0537 11.8269 13.9077 11.5356 13.6157C11.2436 13.3244 11.0976 12.9704 11.0976 12.5537C11.0976 12.137 11.2436 11.783 11.5356 11.4917C11.8269 11.1997 12.1809 11.0537 12.5976 11.0537C13.0142 11.0537 13.3686 11.1997 13.6606 11.4917C13.9519 11.783 14.0976 12.137 14.0976 12.5537C14.0976 12.9704 13.9519 13.3244 13.6606 13.6157C13.3686 13.9077 13.0142 14.0537 12.5976 14.0537ZM11.5476 20.5537H13.5226L13.8726 17.9037C14.3892 17.7704 14.8686 17.5744 15.3106 17.3157C15.7519 17.0577 16.1559 16.7454 16.5226 16.3787L18.9976 17.4037L19.9726 15.7037L17.8226 14.0787C17.9059 13.8454 17.9642 13.5994 17.9976 13.3407C18.0309 13.0827 18.0476 12.8204 18.0476 12.5537C18.0476 12.287 18.0309 12.0244 17.9976 11.7657C17.9642 11.5077 17.9059 11.262 17.8226 11.0287L19.9726 9.40371L18.9976 7.70371L16.5226 8.75371C16.1559 8.37038 15.7519 8.04938 15.3106 7.79071C14.8686 7.53271 14.3892 7.33704 13.8726 7.20371L13.5476 4.55371H11.5726L11.2226 7.20371C10.7059 7.33704 10.2269 7.53271 9.78556 7.79071C9.34356 8.04938 8.93923 8.36204 8.57256 8.72871L6.09756 7.70371L5.12256 9.40371L7.27256 11.0037C7.18922 11.2537 7.13089 11.5037 7.09756 11.7537C7.06423 12.0037 7.04756 12.2704 7.04756 12.5537C7.04756 12.8204 7.06423 13.0787 7.09756 13.3287C7.13089 13.5787 7.18922 13.8287 7.27256 14.0787L5.12256 15.7037L6.09756 17.4037L8.57256 16.3537C8.93923 16.737 9.34356 17.0577 9.78556 17.3157C10.2269 17.5744 10.7059 17.7704 11.2226 17.9037L11.5476 20.5537Z" fill="white"/>
</g>
</svg>
