<svg width="24" height="20" viewBox="0 0 24 20" fill="none" xmlns="http://www.w3.org/2000/svg">
<path d="M0 9.84375V0H12H24V9.84375V19.6875H12H0V9.84375ZM22.5938 17.5781V16.875H12H1.40625V17.5781V18.2813H12H22.5938V17.5781ZM22.5938 9.84375V4.21875H12H1.40625V9.84375V15.4688H12H22.5938V9.84375ZM22.5938 2.10938V1.40625H12H1.40625V2.10938V2.8125H12H22.5938V2.10938Z" fill="white"/>
<path d="M2.85938 11.25V8.4375H3.5625H4.26563V9.14063V9.84375H4.96875H5.67188V9.14063V8.4375H7.78125H9.89063V9.14063V9.84375H10.5938H11.2969V9.14063V8.4375H12H12.7031V11.25V14.0625H12H11.2969V12.6563V11.25H10.5938H9.89063V11.5453C9.89063 11.7047 9.86719 11.9953 9.84375 12.1875C9.75 12.9094 9.3 13.5281 8.63906 13.8422C8.33906 13.9828 8.29219 13.9922 7.78125 13.9922C7.27031 13.9922 7.22344 13.9828 6.92344 13.8422C6.2625 13.5281 5.8125 12.9094 5.71875 12.1875C5.69531 11.9953 5.67188 11.7047 5.67188 11.5453V11.25H4.96875H4.26563V12.6563V14.0625H3.5625H2.85938V11.25ZM8.2875 12.4547L8.46094 12.2813L8.475 11.0625L8.48906 9.84375H7.78125H7.07344L7.0875 11.0578L7.10156 12.2766L7.24219 12.4219C7.43438 12.6234 7.52344 12.6563 7.84219 12.6422C8.08594 12.6281 8.13281 12.6094 8.2875 12.4547Z" fill="white"/>
<path d="M6.375 6.32813V5.625H7.78125H9.1875V6.32813V7.03125H7.78125H6.375V6.32813Z" fill="white"/>
</svg>
