<svg width="25" height="25" viewBox="0 0 25 25" fill="none" xmlns="http://www.w3.org/2000/svg">
<mask id="mask0_1159_13" style="mask-type:alpha" maskUnits="userSpaceOnUse" x="0" y="0" width="25" height="25">
<rect x="0.0324707" y="0.536621" width="24" height="24" fill="#D9D9D9"/>
</mask>
<g mask="url(#mask0_1159_13)">
<path d="M11.9325 22.5366L16.4825 10.5366H18.5825L23.1325 22.5366H21.0325L19.9825 19.4866H15.1325L14.0325 22.5366H11.9325ZM15.7325 17.7366H19.3325L17.5825 12.7866H17.4825L15.7325 17.7366ZM4.03247 19.5366L2.63247 18.1366L7.68247 13.0866C7.04914 12.3866 6.49514 11.6616 6.02047 10.9116C5.54514 10.1616 5.13247 9.36995 4.78247 8.53662H6.88247C7.18247 9.13662 7.50347 9.67829 7.84547 10.1616C8.1868 10.645 8.59914 11.1533 9.08247 11.6866C9.8158 10.8866 10.4241 10.066 10.9075 9.22462C11.3908 8.38262 11.7991 7.48662 12.1325 6.53662H1.03247V4.53662H8.03247V2.53662H10.0325V4.53662H17.0325V6.53662H14.1325C13.7825 7.71995 13.3075 8.86995 12.7075 9.98662C12.1075 11.1033 11.3658 12.1533 10.4825 13.1366L12.8825 15.5866L12.1325 17.6366L9.03247 14.5366L4.03247 19.5366Z" fill="white"/>
</g>
</svg>
