<svg width="20" height="16" viewBox="0 0 20 16" fill="none" xmlns="http://www.w3.org/2000/svg">
<path d="M18.6113 1.86544C18.3191 2.00115 18.0186 2.11569 17.7115 2.20868C18.075 1.7783 18.3522 1.2719 18.5214 0.717744C18.5593 0.59353 18.52 0.457569 18.4225 0.376331C18.3251 0.29503 18.1897 0.285291 18.0825 0.351827C17.4304 0.756698 16.727 1.04766 15.9893 1.2178C15.2463 0.457694 14.2371 0.025116 13.1939 0.025116C10.9917 0.025116 9.20006 1.90075 9.20006 4.2062C9.20006 4.38778 9.21105 4.56835 9.23277 4.74641C6.50007 4.49522 3.95954 3.08904 2.21496 0.848617C2.15278 0.768761 2.057 0.725723 1.95894 0.733954C1.86082 0.741996 1.77266 0.799924 1.72309 0.888953C1.36925 1.52459 1.18219 2.25159 1.18219 2.99128C1.18219 3.99874 1.52577 4.95462 2.13268 5.70153C1.94814 5.63462 1.76906 5.551 1.59814 5.45166C1.50638 5.3982 1.3944 5.39901 1.30324 5.45374C1.21202 5.50846 1.15482 5.60911 1.15242 5.71913C1.152 5.73766 1.152 5.7562 1.152 5.77498C1.152 7.2788 1.92509 8.6327 3.10705 9.37063C3.00551 9.36001 2.90403 9.34461 2.80321 9.32445C2.69926 9.30365 2.59238 9.34179 2.52228 9.42479C2.45207 9.50772 2.42884 9.62333 2.46119 9.72888C2.89869 11.1589 4.02507 12.2107 5.38677 12.5314C4.25738 13.2719 2.96584 13.6598 1.61002 13.6598C1.32712 13.6598 1.0426 13.6424 0.764139 13.6079C0.625809 13.5907 0.49354 13.6762 0.44643 13.814C0.399319 13.9517 0.44925 14.1054 0.566936 14.1843C2.3087 15.3535 4.32268 15.9715 6.39103 15.9715C10.4572 15.9715 13.0008 13.9641 14.4186 12.2801C16.1866 10.1803 17.2006 7.40094 17.2006 4.65474C17.2006 4.54001 17.1989 4.42416 17.1956 4.30868C17.8931 3.75848 18.4936 3.09262 18.9823 2.3273C19.0566 2.21107 19.0485 2.05745 18.9625 1.95045C18.8766 1.84339 18.7335 1.80877 18.6113 1.86544Z" fill="#9D9A9A"/>
</svg>
