<svg width="24" height="16" viewBox="0 0 24 16" fill="none" xmlns="http://www.w3.org/2000/svg">
<path d="M22.711 15.7389C22.5516 15.6404 14.7047 11.1357 14.5407 11.0514L14.4375 10.9951V13.4139V15.8279H18.6422C22.7766 15.8279 22.8469 15.8232 22.711 15.7389Z" fill="white"/>
<path d="M12.9844 12.4063V8.98438H18.4922H24V8V7.01563H18.4922H12.9844V3.59375V0.171875H12H11.0156V3.59375V7.01563H5.50781H-9.53674e-07V8V8.98438H5.50781H11.0156V12.4063V15.8281H12H12.9844V12.4063Z" fill="white"/>
<path d="M9.5625 13.4141C9.5625 12.0875 9.55313 11 9.54844 11C9.525 11 1.20469 15.7766 1.17656 15.8047C1.16719 15.8188 3.04688 15.8281 5.35781 15.8281H9.5625V13.4141Z" fill="white"/>
<path d="M24 12.6219V10.4375H20.2172C18.1406 10.4375 16.4484 10.4469 16.4578 10.4563C16.4672 10.4656 18.0984 11.4078 20.0859 12.5469C22.0734 13.6859 23.7656 14.6609 23.8453 14.7125L24 14.8063V12.6219Z" fill="white"/>
<path d="M3.78286 12.6219L7.54224 10.461L3.78755 10.4469C1.72036 10.4422 0.0234868 10.4422 0.0141118 10.4516C0.00473678 10.461 0.00473678 11.4407 0.00942428 12.6266L0.0234868 14.7782L3.78286 12.6219Z" fill="white"/>
<path d="M24 3.40625C24 2.22031 23.9906 1.25 23.9812 1.25C23.9578 1.25 16.8422 5.33281 16.6172 5.47344C16.4766 5.55781 16.5328 5.5625 20.2359 5.5625H24V3.40625Z" fill="white"/>
<path d="M7.49532 5.54375C7.4672 5.51563 0.0375104 1.25 0.0187604 1.25C0.00938536 1.25 1.0365e-05 2.22031 1.0365e-05 3.40625V5.5625H3.75938C5.82657 5.5625 7.5047 5.55313 7.49532 5.54375Z" fill="white"/>
<path d="M18.6657 2.60943L22.8704 0.195364L18.6704 0.181302C16.3594 0.176614 14.461 0.176614 14.4516 0.185989C14.4422 0.195364 14.4422 1.28755 14.4469 2.61411L14.461 5.02349L18.6657 2.60943Z" fill="white"/>
<path d="M9.5625 2.60938V0.171875H5.33438C3.00938 0.171875 1.12031 0.18125 1.12969 0.190625C1.13906 0.2 2.92031 1.22656 5.08594 2.46875C7.25156 3.71094 9.14531 4.79844 9.29063 4.8875L9.5625 5.04219V2.60938Z" fill="white"/>
</svg>
