<svg width="25" height="25" viewBox="0 0 25 25" fill="none" xmlns="http://www.w3.org/2000/svg">
<mask id="mask0_1211_7" style="mask-type:alpha" maskUnits="userSpaceOnUse" x="0" y="0" width="25" height="25">
<rect x="0.24707" y="0.441406" width="24" height="24" fill="#D9D9D9"/>
</mask>
<g mask="url(#mask0_1211_7)">
<path d="M10.2471 12.4414C9.14707 12.4414 8.2054 12.0497 7.42207 11.2664C6.63874 10.4831 6.24707 9.54141 6.24707 8.44141C6.24707 7.34141 6.63874 6.39974 7.42207 5.61641C8.2054 4.83307 9.14707 4.44141 10.2471 4.44141C11.3471 4.44141 12.2887 4.83307 13.0721 5.61641C13.8554 6.39974 14.2471 7.34141 14.2471 8.44141C14.2471 9.54141 13.8554 10.4831 13.0721 11.2664C12.2887 12.0497 11.3471 12.4414 10.2471 12.4414ZM2.24707 20.4414V17.6414C2.24707 17.0914 2.38874 16.5747 2.67207 16.0914C2.9554 15.6081 3.34707 15.2414 3.84707 14.9914C4.69707 14.5581 5.6554 14.1914 6.72207 13.8914C7.78874 13.5914 8.96374 13.4414 10.2471 13.4414H10.5971C10.6971 13.4414 10.7971 13.4581 10.8971 13.4914C10.7637 13.7914 10.6511 14.1041 10.5591 14.4294C10.4677 14.7541 10.3971 15.0914 10.3471 15.4414H10.2471C9.06374 15.4414 8.00107 15.5914 7.05907 15.8914C6.11774 16.1914 5.34707 16.4914 4.74707 16.7914C4.59707 16.8747 4.4764 16.9914 4.38507 17.1414C4.29307 17.2914 4.24707 17.4581 4.24707 17.6414V18.4414H10.5471C10.6471 18.7914 10.7804 19.1374 10.9471 19.4794C11.1137 19.8207 11.2971 20.1414 11.4971 20.4414H2.24707ZM16.2471 21.4414L15.9471 19.9414C15.7471 19.8581 15.5594 19.7707 15.3841 19.6794C15.2094 19.5874 15.0304 19.4747 14.8471 19.3414L13.3971 19.7914L12.3971 18.0914L13.5471 17.0914C13.5137 16.8581 13.4971 16.6414 13.4971 16.4414C13.4971 16.2414 13.5137 16.0247 13.5471 15.7914L12.3971 14.7914L13.3971 13.0914L14.8471 13.5414C15.0304 13.4081 15.2094 13.2954 15.3841 13.2034C15.5594 13.1121 15.7471 13.0247 15.9471 12.9414L16.2471 11.4414H18.2471L18.5471 12.9414C18.7471 13.0247 18.9347 13.1164 19.1101 13.2164C19.2847 13.3164 19.4637 13.4414 19.6471 13.5914L21.0971 13.0914L22.0971 14.8414L20.9471 15.8414C20.9804 16.0414 20.9971 16.2497 20.9971 16.4664C20.9971 16.6831 20.9804 16.8914 20.9471 17.0914L22.0971 18.0914L21.0971 19.7914L19.6471 19.3414C19.4637 19.4747 19.2847 19.5874 19.1101 19.6794C18.9347 19.7707 18.7471 19.8581 18.5471 19.9414L18.2471 21.4414H16.2471ZM17.2471 18.4414C17.7971 18.4414 18.2681 18.2457 18.6601 17.8544C19.0514 17.4624 19.2471 16.9914 19.2471 16.4414C19.2471 15.8914 19.0514 15.4204 18.6601 15.0284C18.2681 14.6371 17.7971 14.4414 17.2471 14.4414C16.6971 14.4414 16.2264 14.6371 15.8351 15.0284C15.4431 15.4204 15.2471 15.8914 15.2471 16.4414C15.2471 16.9914 15.4431 17.4624 15.8351 17.8544C16.2264 18.2457 16.6971 18.4414 17.2471 18.4414ZM10.2471 10.4414C10.7971 10.4414 11.2681 10.2454 11.6601 9.85341C12.0514 9.46207 12.2471 8.99141 12.2471 8.44141C12.2471 7.89141 12.0514 7.42074 11.6601 7.02941C11.2681 6.63741 10.7971 6.44141 10.2471 6.44141C9.69707 6.44141 9.2264 6.63741 8.83507 7.02941C8.44307 7.42074 8.24707 7.89141 8.24707 8.44141C8.24707 8.99141 8.44307 9.46207 8.83507 9.85341C9.2264 10.2454 9.69707 10.4414 10.2471 10.4414Z" fill="white"/>
</g>
</svg>
