<svg width="44" height="30" viewBox="0 0 44 30" fill="none" xmlns="http://www.w3.org/2000/svg">
<path d="M22 23.5C24.3667 23.5 26.375 22.675 28.025 21.025C29.675 19.375 30.5 17.3667 30.5 15C30.5 12.6333 29.675 10.625 28.025 8.975C26.375 7.325 24.3667 6.5 22 6.5C19.6333 6.5 17.625 7.325 15.975 8.975C14.325 10.625 13.5 12.6333 13.5 15C13.5 17.3667 14.325 19.375 15.975 21.025C17.625 22.675 19.6333 23.5 22 23.5ZM22 20.6C20.4333 20.6 19.1083 20.0583 18.025 18.975C16.9417 17.8917 16.4 16.5667 16.4 15C16.4 13.4333 16.9417 12.1083 18.025 11.025C19.1083 9.94167 20.4333 9.4 22 9.4C23.5667 9.4 24.8917 9.94167 25.975 11.025C27.0583 12.1083 27.6 13.4333 27.6 15C27.6 16.5667 27.0583 17.8917 25.975 18.975C24.8917 20.0583 23.5667 20.6 22 20.6ZM22 30C17.1333 30 12.7333 28.6167 8.8 25.85C4.86667 23.0833 1.93333 19.4667 0 15C1.93333 10.5333 4.86667 6.91667 8.8 4.15C12.7333 1.38333 17.1333 0 22 0C26.8667 0 31.2667 1.38333 35.2 4.15C39.1333 6.91667 42.0667 10.5333 44 15C42.0667 19.4667 39.1333 23.0833 35.2 25.85C31.2667 28.6167 26.8667 30 22 30ZM22 27C26.0333 27 29.7417 25.9083 33.125 23.725C36.5083 21.5417 39.0833 18.6333 40.85 15C39.0833 11.3667 36.5083 8.45833 33.125 6.275C29.7417 4.09167 26.0333 3 22 3C17.9667 3 14.2583 4.09167 10.875 6.275C7.49167 8.45833 4.9 11.3667 3.1 15C4.9 18.6333 7.49167 21.5417 10.875 23.725C14.2583 25.9083 17.9667 27 22 27Z" fill="black"/>
</svg>
