<svg width="156" height="49" viewBox="0 0 156 49" fill="none" xmlns="http://www.w3.org/2000/svg">
<rect x="5.31863" y="5.36124" width="16.4387" height="41.5802" rx="8.21933" fill="black" stroke="white" stroke-width="2.90094"/>
<rect x="41.097" y="5.36124" width="16.4387" height="41.5802" rx="8.21933" fill="black" stroke="white" stroke-width="2.90094"/>
<rect x="64.304" y="5.27713" width="16.4387" height="41.5802" rx="8.21933" fill="black" stroke="white" stroke-width="2.90094"/>
<rect x="105.884" y="30.5026" width="16.4387" height="41.5802" rx="8.21933" transform="rotate(90 105.884 30.5026)" fill="black" stroke="white" stroke-width="2.90094"/>
<rect x="105.968" y="46.9413" width="16.4387" height="41.2438" rx="8.21933" transform="rotate(-180 105.968 46.9413)" fill="black" stroke="white" stroke-width="2.90094"/>
<rect x="2.05127" y="13.718" width="16.4387" height="41.5802" rx="8.21933" transform="rotate(-45 2.05127 13.718)" fill="black" stroke="white" stroke-width="2.90094"/>
<rect x="49.0869" y="2.09406" width="16.5678" height="40.5361" rx="8.21933" transform="rotate(45 49.0869 2.09406)" fill="black" stroke="white" stroke-width="2.90094"/>
<rect x="11.5742" y="21.3768" width="13.6479" height="28.1234" rx="6.82393" transform="rotate(-45.1796 11.5742 21.3768)" fill="black"/>
<rect x="104.51" y="31.9545" width="13.5368" height="25.2577" rx="6.76842" transform="rotate(90.01 104.51 31.9545)" fill="black"/>
<rect x="79.2949" y="45.2451" width="13.5383" height="30.2772" rx="6.76914" transform="rotate(179.99 79.2949 45.2451)" fill="black"/>
<circle cx="133.644" cy="26.374" r="20.7785" fill="black" stroke="white" stroke-width="3.15647"/>
<circle cx="133.643" cy="26.374" r="6.86763" fill="black" stroke="white" stroke-width="3.15647"/>
</svg>
