<svg width="44" height="44" viewBox="0 0 44 44" fill="none" xmlns="http://www.w3.org/2000/svg">
<g clip-path="url(#clip0_66_45)">
<path d="M10.9718 38.1743C9.10766 43.9957 0.515625 42.653 0.515625 36.5413V21.1389C0.515625 15.1267 8.8373 13.5714 11.0089 19.1775C12.8004 23.8021 19.3442 23.8021 21.1356 19.1775C23.3069 13.5714 31.6288 15.1267 31.6288 21.1389V36.5415C31.6288 42.6532 23.0371 43.9957 21.1729 38.1745C19.5833 33.2118 12.5611 33.2118 10.9718 38.1743Z" fill="#6B6B6B" fill-opacity="0.62"/>
<path d="M27.5017 12.7239C22.5125 15.1185 18.4384 13.7216 17.0247 12.7239V23.9283C21.5148 21.5958 25.8801 23.008 27.5017 24.0051V12.7239Z" fill="#6B6B6B"/>
<path d="M27.5017 12.7239C22.5125 15.1185 18.4384 13.7216 17.0247 12.7239V23.9283C21.5148 21.5958 25.8801 23.008 27.5017 24.0051V12.7239Z" fill="#6B6B6B"/>
<path d="M17.0247 12.7239C18.4382 13.7216 22.5123 15.1185 27.5017 12.7239V24.0051C25.8801 23.0079 21.5148 21.5956 17.0247 23.9283V12.7239Z" stroke="#6B6B6B"/>
<path d="M3.37305 17.1688C3.37305 12.9606 6.78442 9.54919 10.9926 9.54919C15.201 9.54919 18.6123 12.9606 18.6123 17.1688V30.503C18.6123 34.7115 15.2008 38.1227 10.9926 38.1227C6.78459 38.1227 3.37305 34.7115 3.37305 30.503V17.1688Z" fill="#6B6B6B"/>
<path d="M24.9621 17.1688C24.9621 12.9606 28.3733 9.54919 32.5815 9.54919C36.7899 9.54919 40.2011 12.9606 40.2011 17.1688V30.503C40.2011 34.7115 36.7899 38.1227 32.5815 38.1227C28.3733 38.1227 24.9621 34.7115 24.9621 30.503V17.1688Z" fill="#6B6B6B"/>
<path d="M16.7073 18.1211C18.2947 20.5171 22.803 23.871 28.137 18.1211" stroke="white" stroke-width="3" stroke-linecap="round"/>
<path d="M44.0108 7.80295C44.0108 11.7482 40.8127 14.9463 36.8673 14.9463C32.9223 14.9463 29.7239 11.7482 29.7239 7.80295C29.7239 3.85756 32.9221 0.659485 36.8673 0.659485C40.8127 0.659657 44.0108 3.85756 44.0108 7.80295Z" fill="white"/>
</g>
<defs>
<clipPath id="clip0_66_45">
<rect width="44" height="44" fill="white"/>
</clipPath>
</defs>
</svg>
