<svg width="157" height="141" viewBox="0 0 157 141" fill="none" xmlns="http://www.w3.org/2000/svg">
<g clip-path="url(#clip0_31_3)">
<path d="M55.6917 79.819C51.8363 91.991 34.0664 89.1836 34.0664 76.4045V44.1995C34.0664 31.6286 51.2771 28.3766 55.7685 40.0983C59.4735 49.768 73.0073 49.768 76.7123 40.0983C81.203 28.3766 98.4141 31.6286 98.4141 44.1995V76.4049C98.4141 89.1839 80.6449 91.991 76.7895 79.8193C73.5018 69.4427 58.9787 69.4427 55.6917 79.819Z" fill="#F8A918" fill-opacity="0.62"/>
<path d="M89.8785 26.6045C79.56 31.6113 71.1339 28.6907 68.2102 26.6045V50.0318C77.4965 45.1547 86.5247 48.1077 89.8785 50.1924V26.6045Z" fill="#F8A918"/>
<path d="M89.8785 26.6045C79.56 31.6113 71.1339 28.6907 68.2102 26.6045V50.0318C77.4965 45.1547 86.5247 48.1077 89.8785 50.1924V26.6045Z" fill="#F8A918"/>
<path d="M68.2102 26.6045C71.1336 28.6907 79.5596 31.6113 89.8785 26.6045V50.1924C86.5247 48.1073 77.4965 45.1544 68.2102 50.0318V26.6045Z" stroke="#F8A918"/>
<path d="M39.9761 35.8984C39.9761 27.0994 47.0314 19.9666 55.7347 19.9666C64.4384 19.9666 71.4937 27.0994 71.4937 35.8984V63.779C71.4937 72.5787 64.438 79.7112 55.7347 79.7112C47.0318 79.7112 39.9761 72.5787 39.9761 63.779V35.8984V35.8984Z" fill="#F8A918"/>
<path d="M84.6262 35.8984C84.6262 27.0994 91.6812 19.9666 100.385 19.9666C109.088 19.9666 116.143 27.0994 116.143 35.8984V63.779C116.143 72.5787 109.088 79.7112 100.385 79.7112C91.6812 79.7112 84.6262 72.5787 84.6262 63.779V35.8984V35.8984Z" fill="#F8A918"/>
<path d="M67.5537 37.8896C70.8368 42.8993 80.1608 49.9122 91.1924 37.8896" stroke="white" stroke-width="3" stroke-linecap="round"/>
<path d="M124.022 16.3152C124.022 24.5643 117.408 31.2512 109.248 31.2512C101.089 31.2512 94.4744 24.5643 94.4744 16.3152C94.4744 8.0658 101.089 1.37891 109.248 1.37891C117.408 1.37927 124.022 8.0658 124.022 16.3152Z" fill="white"/>
</g>
<rect x="5.35235" y="97.3525" width="16.544" height="41.8467" rx="8.27202" fill="black" stroke="white" stroke-width="2.91954"/>
<rect x="41.3602" y="97.3525" width="16.544" height="41.8467" rx="8.27202" fill="black" stroke="white" stroke-width="2.91954"/>
<rect x="64.7166" y="97.2679" width="16.544" height="41.8467" rx="8.27202" fill="black" stroke="white" stroke-width="2.91954"/>
<rect x="106.563" y="122.655" width="16.544" height="41.8467" rx="8.27202" transform="rotate(90 106.563 122.655)" fill="black" stroke="white" stroke-width="2.91954"/>
<rect x="106.648" y="139.199" width="16.5441" height="41.5082" rx="8.27202" transform="rotate(-180 106.648 139.199)" fill="black" stroke="white" stroke-width="2.91954"/>
<rect x="2.06442" y="105.763" width="16.544" height="41.8467" rx="8.27202" transform="rotate(-45 2.06442 105.763)" fill="black" stroke="white" stroke-width="2.91954"/>
<rect x="49.4019" y="94.0644" width="16.674" height="40.796" rx="8.27202" transform="rotate(45 49.4019 94.0644)" fill="black" stroke="white" stroke-width="2.91954"/>
<rect x="11.6482" y="113.471" width="13.7353" height="28.3036" rx="6.86767" transform="rotate(-45.1796 11.6482 113.471)" fill="black"/>
<rect x="105.179" y="124.116" width="13.6236" height="25.4196" rx="6.8118" transform="rotate(90.01 105.179 124.116)" fill="black"/>
<rect x="79.803" y="137.492" width="13.6251" height="30.4713" rx="6.81253" transform="rotate(179.99 79.803 137.492)" fill="black"/>
<circle cx="134.5" cy="118.5" r="20.9116" fill="black" stroke="white" stroke-width="3.1767"/>
<circle cx="134.5" cy="118.5" r="6.91165" fill="black" stroke="white" stroke-width="3.1767"/>
<defs>
<clipPath id="clip0_31_3">
<rect width="91" height="92" fill="white" transform="translate(33)"/>
</clipPath>
</defs>
</svg>
