<svg width="93" height="93" viewBox="0 0 93 93" fill="none" xmlns="http://www.w3.org/2000/svg">
<g clip-path="url(#clip0_5_275)">
<path d="M23.1904 80.6866C19.2503 92.9909 1.08984 90.153 1.08984 77.2351V44.68C1.08984 31.9724 18.6788 28.6851 23.2689 40.5342C27.0554 50.309 40.8866 50.309 44.6731 40.5342C49.2624 28.6851 66.8517 31.9724 66.8517 44.68V77.2354C66.8517 90.1534 48.692 92.991 44.7519 80.687C41.3919 70.1976 26.5497 70.1976 23.1904 80.6866Z" fill="#F8A918" fill-opacity="0.62"/>
<path d="M58.1287 26.8937C47.5833 31.955 38.9721 29.0026 35.9841 26.8937V50.5757C45.4745 45.6456 54.7011 48.6307 58.1287 50.7381V26.8937Z" fill="#F8A918"/>
<path d="M58.1287 26.8937C47.5833 31.955 38.9721 29.0026 35.9841 26.8937V50.5757C45.4745 45.6456 54.7011 48.6307 58.1287 50.7381V26.8937Z" fill="#F8A918"/>
<path d="M35.9841 26.8937C38.9718 29.0026 47.583 31.955 58.1287 26.8937V50.7381C54.7011 48.6303 45.4745 45.6452 35.9841 50.5757V26.8937Z" stroke="#F8A918"/>
<path d="M7.12939 36.2885C7.12939 27.3939 14.3398 20.1835 23.2344 20.1835C32.1293 20.1835 39.3397 27.3939 39.3397 36.2885V64.4722C39.3397 73.3675 32.129 80.5776 23.2344 80.5776C14.3402 80.5776 7.12939 73.3675 7.12939 64.4722V36.2885Z" fill="#F8A918"/>
<path d="M52.7607 36.2885C52.7607 27.3939 59.9708 20.1835 68.8654 20.1835C77.7603 20.1835 84.9704 27.3939 84.9704 36.2885V64.4722C84.9704 73.3675 77.7603 80.5776 68.8654 80.5776C59.9708 80.5776 52.7607 73.3675 52.7607 64.4722V36.2885Z" fill="#F8A918"/>
<path d="M35.3132 38.3015C38.6685 43.3656 48.1974 50.4547 59.4714 38.3015" stroke="white" stroke-width="3" stroke-linecap="round"/>
<path d="M93.0228 16.4926C93.0228 24.8314 86.2633 31.591 77.9241 31.591C69.5857 31.591 62.8254 24.8314 62.8254 16.4926C62.8254 8.15349 69.5854 1.39392 77.9241 1.39392C86.2633 1.39428 93.0228 8.15349 93.0228 16.4926Z" fill="white"/>
</g>
<defs>
<clipPath id="clip0_5_275">
<rect width="93" height="93" fill="white"/>
</clipPath>
</defs>
</svg>
