<svg width="262" height="92" viewBox="0 0 262 92" fill="none" xmlns="http://www.w3.org/2000/svg">
<g clip-path="url(#clip0_31_2)">
<path d="M22.6917 79.819C18.8363 91.991 1.06641 89.1836 1.06641 76.4046V44.1995C1.06641 31.6286 18.2771 28.3766 22.7685 40.0984C26.4735 49.7681 40.0073 49.7681 43.7123 40.0984C48.203 28.3766 65.4141 31.6286 65.4141 44.1995V76.4049C65.4141 89.1839 47.6449 91.991 43.7895 79.8194C40.5018 69.4428 25.9787 69.4428 22.6917 79.819Z" fill="#F8A918" fill-opacity="0.62"/>
<path d="M56.8785 26.6046C46.56 31.6114 38.1339 28.6907 35.2102 26.6046V50.0319C44.4965 45.1548 53.5247 48.1078 56.8785 50.1925V26.6046Z" fill="#F8A918"/>
<path d="M56.8785 26.6045C46.56 31.6113 38.1339 28.6907 35.2102 26.6045V50.0318C44.4965 45.1547 53.5247 48.1077 56.8785 50.1925V26.6045Z" fill="#F8A918"/>
<path d="M35.2102 26.6045C38.1336 28.6907 46.5596 31.6113 56.8785 26.6045V50.1925C53.5247 48.1074 44.4965 45.1544 35.2102 50.0318V26.6045Z" stroke="#F8A918"/>
<path d="M6.97607 35.8983C6.97607 27.0994 14.0314 19.9665 22.7347 19.9665C31.4384 19.9665 38.4937 27.0994 38.4937 35.8983V63.779C38.4937 72.5787 31.438 79.7112 22.7347 79.7112C14.0318 79.7112 6.97607 72.5787 6.97607 63.779V35.8983Z" fill="#F8A918"/>
<path d="M51.6262 35.8983C51.6262 27.0994 58.6812 19.9665 67.3845 19.9665C76.0882 19.9665 83.1432 27.0994 83.1432 35.8983V63.779C83.1432 72.5787 76.0882 79.7112 67.3845 79.7112C58.6812 79.7112 51.6262 72.5787 51.6262 63.779V35.8983Z" fill="#F8A918"/>
<path d="M34.5537 37.8896C37.8368 42.8993 47.1608 49.9121 58.1924 37.8896" stroke="white" stroke-width="3" stroke-linecap="round"/>
<path d="M91.0223 16.3153C91.0223 24.5644 84.4081 31.2513 76.2484 31.2513C68.0893 31.2513 61.4744 24.5644 61.4744 16.3153C61.4744 8.06583 68.0889 1.37894 76.2484 1.37894C84.4081 1.3793 91.0223 8.06583 91.0223 16.3153Z" fill="white"/>
</g>
<rect x="110.352" y="33.3525" width="16.544" height="41.8467" rx="8.27202" fill="black" stroke="white" stroke-width="2.91954"/>
<rect x="146.36" y="33.3525" width="16.544" height="41.8467" rx="8.27202" fill="black" stroke="white" stroke-width="2.91954"/>
<rect x="169.717" y="33.2678" width="16.544" height="41.8467" rx="8.27202" fill="black" stroke="white" stroke-width="2.91954"/>
<rect x="211.563" y="58.6551" width="16.544" height="41.8467" rx="8.27202" transform="rotate(90 211.563 58.6551)" fill="black" stroke="white" stroke-width="2.91954"/>
<rect x="211.648" y="75.1991" width="16.5441" height="41.5082" rx="8.27202" transform="rotate(-180 211.648 75.1991)" fill="black" stroke="white" stroke-width="2.91954"/>
<rect x="107.064" y="41.7628" width="16.544" height="41.8467" rx="8.27202" transform="rotate(-45 107.064 41.7628)" fill="black" stroke="white" stroke-width="2.91954"/>
<rect x="154.402" y="30.0644" width="16.674" height="40.796" rx="8.27202" transform="rotate(45 154.402 30.0644)" fill="black" stroke="white" stroke-width="2.91954"/>
<rect x="116.648" y="49.4707" width="13.7353" height="28.3036" rx="6.86767" transform="rotate(-45.1796 116.648 49.4707)" fill="black"/>
<rect x="210.179" y="60.1162" width="13.6236" height="25.4196" rx="6.8118" transform="rotate(90.01 210.179 60.1162)" fill="black"/>
<rect x="184.803" y="73.4921" width="13.6251" height="30.4713" rx="6.81253" transform="rotate(179.99 184.803 73.4921)" fill="black"/>
<circle cx="239.5" cy="54.5" r="20.9116" fill="black" stroke="white" stroke-width="3.1767"/>
<circle cx="239.5" cy="54.5" r="6.91165" fill="black" stroke="white" stroke-width="3.1767"/>
<defs>
<clipPath id="clip0_31_2">
<rect width="91" height="92" fill="white"/>
</clipPath>
</defs>
</svg>
