<svg width="125" height="125" viewBox="0 0 125 125" fill="none" xmlns="http://www.w3.org/2000/svg">
<g clip-path="url(#clip0_461_372)">
<path d="M31.1689 108.45C25.873 124.988 1.46387 121.173 1.46387 103.811V60.0537C1.46387 42.9736 25.105 38.5552 31.2744 54.4814C36.3638 67.6196 54.9541 67.6196 60.0435 54.4814C66.2119 38.5552 89.8535 42.9736 89.8535 60.0537V103.811C89.8535 121.174 65.4453 124.988 60.1494 108.45C55.6333 94.3516 35.6841 94.3516 31.1689 108.45Z" fill="#F8A918" fill-opacity="0.62"/>
<path d="M78.1294 36.1474C63.9556 42.9501 52.3813 38.9819 48.3652 36.1474V67.978C61.1211 61.3515 73.5225 65.3637 78.1294 68.1962V36.1474Z" fill="#F8A918"/>
<path d="M78.1294 36.1474C63.9556 42.9501 52.3813 38.9819 48.3652 36.1474V67.978C61.1211 61.3515 73.5225 65.3637 78.1294 68.1962V36.1474Z" fill="#F8A918"/>
<path d="M48.3652 36.1474C52.3809 38.9819 63.9551 42.9501 78.1294 36.1474V68.1962C73.5225 65.3632 61.1211 61.351 48.3652 67.978V36.1474Z" stroke="#F8A918" stroke-width="0.171698"/>
<path d="M9.58203 48.7748C9.58203 36.8198 19.2734 27.1284 31.2285 27.1284C43.1841 27.1284 52.8755 36.8198 52.8755 48.7748V86.6562C52.8755 98.6122 43.1836 108.303 31.2285 108.303C19.2739 108.303 9.58203 98.6122 9.58203 86.6562V48.7748Z" fill="#F8A918"/>
<path d="M70.9141 48.7748C70.9141 36.8198 80.605 27.1284 92.5601 27.1284C104.516 27.1284 114.207 36.8198 114.207 48.7748V86.6562C114.207 98.6122 104.516 108.303 92.5601 108.303C80.605 108.303 70.9141 98.6122 70.9141 86.6562V48.7748V48.7748Z" fill="#F8A918"/>
<path d="M47.4639 51.4805C51.9736 58.2871 64.7812 67.8154 79.9346 51.4805" stroke="white" stroke-width="2.40377" stroke-linecap="round"/>
<path d="M125.03 22.1675C125.03 33.3755 115.945 42.4609 104.736 42.4609C93.5288 42.4609 84.4424 33.3755 84.4424 22.1675C84.4424 10.959 93.5283 1.87354 104.736 1.87354C115.945 1.87402 125.03 10.959 125.03 22.1675Z" fill="white"/>
</g>
<defs>
<clipPath id="clip0_461_372">
<rect width="125" height="125" fill="white"/>
</clipPath>
</defs>
</svg>
