<svg width="52" height="52" viewBox="0 0 52 52" fill="none" xmlns="http://www.w3.org/2000/svg">
<g clip-path="url(#clip0_5_276)">
<path d="M12.9667 45.1151C10.7636 51.9949 0.609375 50.4081 0.609375 43.1852V24.9824C0.609375 17.877 10.4441 16.039 13.0106 22.6643C15.1277 28.1298 22.8613 28.1298 24.9785 22.6643C27.5446 16.039 37.3795 17.877 37.3795 24.9824V43.1854C37.3795 50.4083 27.2257 51.9949 25.0226 45.1153C23.1439 39.2503 14.845 39.2503 12.9667 45.1151Z" fill="#F8A918" fill-opacity="0.62"/>
<path d="M32.502 15.0374C26.6057 17.8673 21.7908 16.2165 20.1201 15.0374V28.2789C25.4266 25.5223 30.5855 27.1913 32.502 28.3697V15.0374Z" fill="#F8A918"/>
<path d="M32.502 15.0374C26.6057 17.8673 21.7908 16.2165 20.1201 15.0374V28.2789C25.4266 25.5223 30.5855 27.1913 32.502 28.3697V15.0374Z" fill="#F8A918"/>
<path d="M20.1201 15.0374C21.7906 16.2165 26.6055 17.8673 32.502 15.0374V28.3697C30.5855 27.1911 25.4266 25.5221 20.1201 28.2789V15.0374Z" stroke="#F8A918"/>
<path d="M3.98633 20.2903C3.98633 15.317 8.01795 11.2854 12.9913 11.2854C17.9648 11.2854 21.9964 15.317 21.9964 20.2903V36.049C21.9964 41.0227 17.9646 45.0541 12.9913 45.0541C8.01816 45.0541 3.98633 41.0227 3.98633 36.049V20.2903Z" fill="#F8A918"/>
<path d="M29.5007 20.2903C29.5007 15.317 33.5321 11.2854 38.5054 11.2854C43.4789 11.2854 47.5104 15.317 47.5104 20.2903V36.049C47.5104 41.0227 43.4789 45.0541 38.5054 45.0541C33.5321 45.0541 29.5007 41.0227 29.5007 36.049V20.2903Z" fill="#F8A918"/>
<path d="M19.745 21.4159C21.6211 24.2475 26.949 28.2112 33.2528 21.4159" stroke="white" stroke-width="3" stroke-linecap="round"/>
<path d="M52.0128 9.2217C52.0128 13.8842 48.2333 17.6638 43.5705 17.6638C38.9082 17.6638 35.1282 13.8842 35.1282 9.2217C35.1282 4.55897 38.908 0.779419 43.5705 0.779419C48.2333 0.779622 52.0128 4.55897 52.0128 9.2217Z" fill="white"/>
</g>
<defs>
<clipPath id="clip0_5_276">
<rect width="52" height="52" fill="white"/>
</clipPath>
</defs>
</svg>
