<svg width="261" height="92" viewBox="0 0 261 92" fill="none" xmlns="http://www.w3.org/2000/svg">
<rect x="109.352" y="28.3525" width="16.544" height="41.8467" rx="8.27202" fill="black" stroke="white" stroke-width="2.91954"/>
<rect x="145.36" y="28.3525" width="16.544" height="41.8467" rx="8.27202" fill="black" stroke="white" stroke-width="2.91954"/>
<rect x="168.717" y="28.2678" width="16.544" height="41.8467" rx="8.27202" fill="black" stroke="white" stroke-width="2.91954"/>
<rect x="210.563" y="53.6551" width="16.544" height="41.8467" rx="8.27202" transform="rotate(90 210.563 53.6551)" fill="black" stroke="white" stroke-width="2.91954"/>
<rect x="210.648" y="70.1991" width="16.5441" height="41.5082" rx="8.27202" transform="rotate(-180 210.648 70.1991)" fill="black" stroke="white" stroke-width="2.91954"/>
<rect x="106.064" y="36.7628" width="16.544" height="41.8467" rx="8.27202" transform="rotate(-45 106.064 36.7628)" fill="black" stroke="white" stroke-width="2.91954"/>
<rect x="153.402" y="25.0644" width="16.674" height="40.796" rx="8.27202" transform="rotate(45 153.402 25.0644)" fill="black" stroke="white" stroke-width="2.91954"/>
<rect x="115.648" y="44.4707" width="13.7353" height="28.3036" rx="6.86767" transform="rotate(-45.1796 115.648 44.4707)" fill="black"/>
<rect x="209.179" y="55.1162" width="13.6236" height="25.4196" rx="6.8118" transform="rotate(90.01 209.179 55.1162)" fill="black"/>
<rect x="183.803" y="68.4921" width="13.6251" height="30.4713" rx="6.81253" transform="rotate(179.99 183.803 68.4921)" fill="black"/>
<circle cx="238.5" cy="49.5" r="20.9116" fill="black" stroke="white" stroke-width="3.1767"/>
<circle cx="238.5" cy="49.5" r="6.91165" fill="black" stroke="white" stroke-width="3.1767"/>
<g clip-path="url(#clip0_142_12)">
<path d="M22.9411 79.819C19.0433 91.991 1.07812 89.1836 1.07812 76.4045V44.1995C1.07812 31.6286 18.478 28.3766 23.0187 40.0983C26.7645 49.768 40.4469 49.768 44.1927 40.0983C48.7327 28.3766 66.1329 31.6286 66.1329 44.1995V76.4049C66.1329 89.1839 48.1685 91.991 44.2707 79.8193C40.9468 69.4427 26.2642 69.4427 22.9411 79.819Z" fill="#F8A918" fill-opacity="0.62"/>
<path d="M57.5036 26.6045C47.0716 31.6113 38.553 28.6907 35.5972 26.6045V50.0318C44.9855 45.1547 54.1129 48.1077 57.5036 50.1925V26.6045Z" fill="#F8A918"/>
<path d="M57.5036 26.6045C47.0716 31.6113 38.553 28.6907 35.5972 26.6045V50.0318C44.9855 45.1547 54.1129 48.1077 57.5036 50.1925V26.6045Z" fill="#F8A918"/>
<path d="M35.5972 26.6045C38.5527 28.6907 47.0713 31.6113 57.5036 26.6045V50.1925C54.1129 48.1074 44.9855 45.1544 35.5972 50.0318V26.6045Z" stroke="#F8A918" stroke-width="0.235897"/>
<path d="M7.05273 35.8983C7.05273 27.0994 14.1856 19.9665 22.9845 19.9665C31.7838 19.9665 38.9167 27.0994 38.9167 35.8983V63.779C38.9167 72.5787 31.7835 79.7112 22.9845 79.7112C14.186 79.7112 7.05273 72.5787 7.05273 63.779V35.8983Z" fill="#F8A918"/>
<path d="M52.1935 35.8983C52.1935 27.0994 59.326 19.9665 68.1249 19.9665C76.9242 19.9665 84.0568 27.0994 84.0568 35.8983V63.779C84.0568 72.5787 76.9242 79.7112 68.1249 79.7112C59.326 79.7112 52.1935 72.5787 52.1935 63.779V35.8983V35.8983Z" fill="#F8A918"/>
<path d="M34.9334 37.8896C38.2526 42.8993 47.679 49.9121 58.8318 37.8896" stroke="white" stroke-width="3.30256" stroke-linecap="round"/>
<path d="M92.0226 16.3153C92.0226 24.5644 85.3358 31.2513 77.0863 31.2513C68.8376 31.2513 62.15 24.5644 62.15 16.3153C62.15 8.06583 68.8372 1.37894 77.0863 1.37894C85.3358 1.3793 92.0226 8.06583 92.0226 16.3153Z" fill="white"/>
</g>
<defs>
<clipPath id="clip0_142_12">
<rect width="92" height="92" fill="white"/>
</clipPath>
</defs>
</svg>
