<svg width="172" height="21" viewBox="0 0 172 21" fill="none" xmlns="http://www.w3.org/2000/svg">
<path d="M22.9359 19.6272C17.292 18.4885 15.8068 17.0528 15.7573 12.7457C15.7573 10.3693 16.0049 9.4782 17.292 7.49791C18.1337 6.21072 19.5694 4.62649 20.51 4.03241C21.4507 3.38881 22.1933 2.69571 22.1933 2.44817C22.1933 2.20064 22.7378 2.00261 23.3814 2.00261C24.025 2.00261 24.6686 1.80458 24.7676 1.50754C24.8667 1.26 27.045 0.962957 29.6689 0.91345C35.0156 0.764928 36.0553 1.26 36.0553 3.9829C36.0553 6.0622 35.0651 6.95333 32.6888 6.95333C30.5105 6.95333 29.1243 5.81467 29.1243 4.03241C29.1243 3.14128 28.9758 3.04226 28.1836 3.48783C27.6391 3.73536 26.8469 3.9829 26.4014 3.9829C25.5598 3.9829 22.8864 6.80481 21.8467 8.7851C20.9061 10.5674 21.0546 14.4289 22.0943 15.6666C23.4805 17.3994 24.8667 17.8449 29.8669 18.1915C35.1642 18.538 36.0553 18.1915 36.0553 15.7161C36.0553 14.627 36.5504 13.7853 37.8376 12.5477C39.6693 10.9139 39.6693 10.9139 44.8181 10.9139H50.0163L49.7688 12.3001C49.6203 13.0427 49.2737 14.5279 48.9767 15.6171C48.7291 16.7063 48.5806 17.6469 48.6796 17.7954C49.0262 18.0925 52.9373 18.2905 53.6304 18.043C53.9769 17.8944 54.769 16.2112 55.4126 14.3299L56.5513 10.9139H58.6306H60.7099L60.4624 12.8942C60.3138 13.9834 60.3633 14.8745 60.5614 14.8745C60.9079 14.8745 63.8784 12.8942 64.2744 12.3496C64.8685 11.607 66.8488 10.9139 68.4825 10.9139C70.2648 10.9139 70.3143 10.9634 70.1163 12.5972C69.9678 14.0329 70.0668 14.2309 70.7104 13.8843C71.1559 13.6368 71.7995 13.0922 72.1956 12.6962C72.5421 12.2506 73.1362 11.9041 73.4828 11.9041C73.8788 11.9041 74.1759 11.706 74.1759 11.409C74.1759 11.1614 74.968 10.9139 75.9086 10.9139C77.8889 10.9139 78.6315 11.9536 77.7404 13.4388C77.3938 13.9339 77.1463 14.726 77.1463 15.122C77.1463 15.5181 76.9483 15.8646 76.6512 15.8646C76.4037 15.8646 76.1562 16.4092 76.1562 17.1023C76.1562 18.241 76.3047 18.34 78.6315 18.34C81.2059 18.34 81.8 18.9341 80.1662 19.8252C78.681 20.6173 72.7402 20.4688 71.8985 19.6272C71.0569 18.7361 71.0074 17.0033 71.849 16.7063C72.1461 16.6072 72.2946 16.3597 72.0966 16.1617C71.7995 15.8151 69.7697 16.6568 69.2251 17.3499C68.433 18.34 65.2646 20.3203 64.4229 20.3203C62.7892 20.3203 61.9971 19.0331 62.7892 17.5974C63.7794 15.7161 63.0367 15.5676 61.0564 17.2508C60.1158 18.142 58.6801 19.1321 57.9375 19.4787C56.1552 20.3698 45.3627 20.5678 44.026 19.7262C43.2833 19.2806 42.7883 19.2806 41.7486 19.7262C39.8178 20.6173 37.8871 20.4688 36.6494 19.3301L35.5602 18.34L34.5701 19.3301C33.7285 20.1718 32.9858 20.3203 29.7679 20.2708C27.6391 20.2213 24.5696 19.9737 22.9359 19.6272ZM43.8774 16.3597C43.9765 15.6666 44.2735 14.924 44.521 14.6765C45.4122 13.7358 44.9666 12.8942 43.5804 12.8942C41.6991 12.8942 41.006 13.7358 41.006 16.0132C41.006 17.7954 41.105 17.8944 42.3922 17.7459C43.3824 17.6469 43.7784 17.3003 43.8774 16.3597Z" fill="white"/>
<path d="M83.0377 19.3798C82.0971 18.6372 81.8991 18.0431 82.0476 16.5579C82.3941 12.2508 84.6715 10.9141 91.652 10.9141C96.1077 10.9141 96.5532 11.0131 96.2067 11.8052C96.0086 12.2508 95.7611 13.0924 95.6126 13.637C95.4641 14.1815 95.167 15.1222 94.87 15.7163C93.9788 17.548 94.6719 18.3401 97.1968 18.3401C99.5237 18.3401 100.068 18.9342 98.484 19.8254C97.1473 20.5185 91.355 20.469 89.7707 19.7264C88.8301 19.2808 88.3845 19.2808 87.939 19.7264C87.0478 20.6175 84.3249 20.4195 83.0377 19.3798ZM90.3153 15.3697C90.7114 14.132 91.0084 13.0924 91.0084 13.0429C91.0084 12.9439 90.2658 12.8944 89.3252 12.8944C87.5429 12.8944 87.0478 13.637 87.0478 16.5084C87.0478 17.7461 87.1963 17.8946 88.335 17.7461C89.4242 17.647 89.7707 17.2015 90.3153 15.3697Z" fill="white"/>
<path d="M107.247 19.6273C106.306 18.9342 106.059 17.35 106.851 17.35C107.148 17.35 107.346 16.6074 107.346 15.7163C107.346 14.8251 107.593 13.835 107.94 13.4884C108.385 13.0429 108.088 12.8943 106.603 12.8943C104.722 12.8943 104.573 13.0429 103.435 15.3697C102.643 17.0529 101.999 17.8451 101.355 17.8451C100.365 17.8451 100.118 16.9044 100.86 16.1123C101.652 15.2707 101.652 13.0924 100.959 11.7062C99.9691 9.92391 100.91 8.33967 103.385 7.54756C106.158 6.70593 106.356 6.75544 106.356 8.43869C106.356 9.28031 106.108 9.92391 105.811 9.92391C105.563 9.92391 105.464 10.1714 105.613 10.419C105.761 10.716 107.593 10.9141 109.623 10.9141C111.752 10.9141 113.287 11.1121 113.287 11.4091C113.287 11.7062 113.089 11.9042 112.791 11.9042C112.544 11.9042 112.296 12.5478 112.296 13.3399C112.296 14.1815 112.098 14.9736 111.801 15.1222C111.554 15.2707 111.306 16.0628 111.306 16.9044C111.306 18.2906 111.356 18.3401 113.782 18.3401C116.356 18.3401 116.95 18.9342 115.316 19.8254C113.93 20.568 108.237 20.4194 107.247 19.6273Z" fill="white"/>
<path d="M119.376 19.6768C116.752 18.6867 116.207 17.548 117 14.6271C117.94 11.2606 119.178 10.9141 130.664 10.9141C140.615 10.9141 140.664 10.9141 139.773 11.9042C138.981 12.7458 138.238 12.8944 134.129 12.8944H129.327L129.525 14.8746C129.772 17.1025 128.931 18.3897 126.554 19.6273C124.97 20.469 121.554 20.469 119.376 19.6768ZM124.525 17.251C125.267 15.6668 126.158 13.3894 126.158 13.1419C126.158 12.9934 125.317 12.8944 124.277 12.8944C122.693 12.8944 122.247 13.1419 121.802 14.132C121.059 15.7658 121.059 17.0035 121.802 17.7461C122.742 18.6867 123.98 18.4392 124.525 17.251Z" fill="white"/>
<path d="M135.565 18.9342C135.565 17.3994 136.407 16.4093 138.931 15.1716C139.773 14.7261 141.852 13.0428 143.486 11.4586C146.209 8.78519 146.457 8.38913 146.457 6.35933C146.457 4.32953 145.813 2.99284 144.872 2.99284C144.674 2.99284 144.476 3.28988 144.476 3.63643C144.476 3.93348 143.932 4.82461 143.288 5.61672C141.159 8.09208 137.1 6.8544 137.05 3.68594C137.001 -0.126117 147.546 -1.41331 151.556 1.90368C152.15 2.44826 152.397 3.3889 152.397 5.4682C152.397 8.14159 152.249 8.48814 150.17 10.815C148.932 12.2012 146.902 13.7854 145.714 14.3795C144.476 14.9736 143.387 15.6667 143.189 15.9142C143.041 16.1618 144.674 16.3598 146.952 16.3598H151.011L150.665 17.6965C150.071 20.2214 149.774 20.3204 142.446 20.3204H135.565V18.9342Z" fill="white"/>
<path d="M159.328 19.6272C159.328 19.1816 159.873 17.5974 160.566 16.0627C161.259 14.5279 161.804 13.1912 161.804 13.0922C161.804 12.9932 161.259 12.8942 160.566 12.8942C159.675 12.8942 159.328 12.6467 159.328 11.9536C159.328 11.2109 159.724 10.9139 160.912 10.8149C162.2 10.7159 162.744 10.2703 163.635 8.68607C164.229 7.59691 164.873 6.1117 165.022 5.36909C165.368 4.13141 165.269 3.98289 164.081 3.98289C162.15 3.98289 158.338 5.02254 158.338 5.51761C158.338 5.76515 157.893 5.96318 157.348 5.96318C156.061 5.96318 156.061 4.72549 157.348 2.64619L158.338 1.01245H165.022C168.685 1.01245 171.705 1.11147 171.705 1.30949C171.705 1.70555 169.824 5.96318 168.685 7.99297C167.447 10.3693 167.497 10.9139 168.933 10.9139C169.873 10.9139 170.071 11.1119 169.873 11.904C169.675 12.5971 169.18 12.8942 168.24 12.8942C167.101 12.8942 166.705 13.2407 165.814 15.2705C163.784 19.7757 163.536 20.0727 161.358 20.2213C159.823 20.3203 159.328 20.2213 159.328 19.6272Z" fill="white"/>
<path d="M4.37078 13.9833C3.43014 13.5377 2.44 12.6466 2.14295 12.003C1.89542 11.4089 1.49936 10.9138 1.30133 10.9138C1.0538 10.9138 0.905273 10.0227 0.905273 8.93355C0.905273 7.84439 1.0538 6.95326 1.30133 6.95326C1.49936 6.95326 1.94493 6.30966 2.29148 5.46804C2.68753 4.57691 3.33113 3.98282 3.92522 3.98282C4.42029 3.98282 4.86585 3.78479 4.86585 3.48775C4.86585 3.24021 6.10353 2.99268 7.58875 2.99268C9.07397 2.99268 10.3117 3.24021 10.3117 3.48775C10.3117 3.78479 10.6087 3.98282 11.0048 3.98282C12.1929 3.98282 13.7772 6.70572 13.7772 8.68601C13.7772 11.2109 12.5395 13.3397 10.5592 14.1813C7.83629 15.32 7.48974 14.9734 9.61855 13.3892C12.1434 11.5574 13.0841 8.98305 11.9949 6.85424C11.5988 6.06213 10.8562 5.31952 10.4107 5.17099C9.9651 5.02247 9.17298 4.67592 8.72742 4.42839C7.58875 3.8343 6.35107 3.8343 6.35107 4.47789C6.35107 4.77494 5.90551 4.97297 5.31142 4.97297C4.12324 4.97297 2.88556 6.06213 2.88556 7.15128C2.88556 7.59685 2.68753 7.9434 2.39049 7.9434C0.60823 7.9434 3.38064 12.6961 6.10353 14.2803C7.63826 15.1715 6.30156 14.9239 4.37078 13.9833Z" fill="white"/>
<path d="M4.76692 11.211C2.44008 9.47827 4.81642 5.96326 8.28193 5.96326C9.81666 5.96326 10.3117 6.16129 10.5593 6.9534C10.7078 7.49798 10.7078 8.14158 10.5593 8.43862C10.1632 9.08221 7.83637 9.08221 7.83637 8.43862C7.83637 7.597 6.99474 7.89404 6.74721 8.83468C6.35115 10.3694 6.89573 10.914 8.87602 10.914C9.91567 10.914 10.8068 11.1615 10.8068 11.4091C10.8068 12.1517 5.75706 12.0031 4.76692 11.211Z" fill="white"/>
</svg>
