<svg width="82" height="82" viewBox="0 0 82 82" fill="none" xmlns="http://www.w3.org/2000/svg">
<g clip-path="url(#clip0_284_209)">
<path d="M3.21753 3.5217L77.9676 78.2717" stroke="white" stroke-width="7" stroke-linecap="round" stroke-linejoin="round"/>
<path d="M28.134 11.8273H65.5089C68.8132 11.8273 71.9819 13.1398 74.3184 15.4762C76.6547 17.8126 77.9674 20.9815 77.9674 24.2855V57.5079C77.9685 58.7316 77.7895 59.9491 77.4358 61.1207" stroke="white" stroke-width="7" stroke-linecap="round" stroke-linejoin="round"/>
<path d="M69.1221 69.4346C67.9504 69.7882 66.7331 69.9674 65.5091 69.9662H15.6759C12.3717 69.9662 9.20289 68.6536 6.86649 66.3172C4.5301 63.9809 3.21753 60.8119 3.21753 57.5079V24.2856C3.21753 18.6711 6.93011 13.9244 12.038 12.3671" stroke="white" stroke-width="7" stroke-linecap="round" stroke-linejoin="round"/>
<path d="M3.21753 36.744H36.4398" stroke="white" stroke-width="7" stroke-linecap="round" stroke-linejoin="round"/>
<path d="M53.051 36.744H77.9676" stroke="white" stroke-width="7" stroke-linecap="round" stroke-linejoin="round"/>
<path d="M19.8289 53.3549H19.8698" stroke="white" stroke-width="7" stroke-linecap="round" stroke-linejoin="round"/>
<path d="M36.4395 53.3549H44.745" stroke="white" stroke-width="7" stroke-linecap="round" stroke-linejoin="round"/>
</g>
<defs>
<clipPath id="clip0_284_209">
<rect width="82" height="82" fill="white"/>
</clipPath>
</defs>
</svg>
