<svg width="32" height="32" viewBox="0 0 32 32" fill="none" xmlns="http://www.w3.org/2000/svg">
<mask id="mask0_1145_73" style="mask-type:alpha" maskUnits="userSpaceOnUse" x="0" y="0" width="32" height="32">
<rect width="31.901" height="31.901" fill="#D9D9D9"/>
</mask>
<g mask="url(#mask0_1145_73)">
<path d="M11.1654 22.5967L15.9505 17.8116L20.7357 22.5967L22.5966 20.7358L17.8114 15.9507L22.5966 11.1655L20.7357 9.30463L15.9505 14.0898L11.1654 9.30463L9.3045 11.1655L14.0897 15.9507L9.3045 20.7358L11.1654 22.5967ZM6.64609 27.9135C5.91502 27.9135 5.28897 27.6535 4.76792 27.1333C4.24775 26.6122 3.98767 25.9862 3.98767 25.2551V6.64621C3.98767 5.91515 4.24775 5.28909 4.76792 4.76804C5.28897 4.24787 5.91502 3.98779 6.64609 3.98779H25.255C25.9861 3.98779 26.6121 4.24787 27.1332 4.76804C27.6533 5.28909 27.9134 5.91515 27.9134 6.64621V25.2551C27.9134 25.9862 27.6533 26.6122 27.1332 27.1333C26.6121 27.6535 25.9861 27.9135 25.255 27.9135H6.64609ZM6.64609 25.2551H25.255V6.64621H6.64609V25.2551Z" fill="white"/>
</g>
</svg>
