<svg width="37" height="37" viewBox="0 0 37 37" fill="none" xmlns="http://www.w3.org/2000/svg">
<mask id="mask0_1145_46" style="mask-type:alpha" maskUnits="userSpaceOnUse" x="0" y="0" width="37" height="37">
<rect width="37" height="37" fill="#D9D9D9"/>
</mask>
<g mask="url(#mask0_1145_46)">
<path d="M12.7187 32.375L4.625 24.2812V12.7187L12.7187 4.625H24.2812L32.375 12.7187V24.2812L24.2812 32.375H12.7187ZM14.0292 29.2917H22.9708L29.2917 22.9708V14.0292L22.9708 7.70833H14.0292L7.70833 14.0292V22.9708L14.0292 29.2917ZM14.1062 25.0521L18.5 20.6583L22.8938 25.0521L25.0521 22.8938L20.6583 18.5L25.0521 14.1062L22.8938 11.9479L18.5 16.3417L14.1062 11.9479L11.9479 14.1062L16.3417 18.5L11.9479 22.8938L14.1062 25.0521Z" fill="#FF0202"/>
</g>
</svg>
