<svg width="25" height="25" viewBox="0 0 25 25" fill="none" xmlns="http://www.w3.org/2000/svg">
<mask id="mask0_1148_91" style="mask-type:alpha" maskUnits="userSpaceOnUse" x="0" y="0" width="25" height="25">
<rect x="0.554199" y="0.243652" width="24" height="24" fill="#D9D9D9"/>
</mask>
<g mask="url(#mask0_1148_91)">
<path d="M11.5542 17.2437H13.5542V11.2437H11.5542V17.2437ZM12.5542 9.24365C12.8375 9.24365 13.0752 9.14765 13.2672 8.95565C13.4585 8.76432 13.5542 8.52699 13.5542 8.24365C13.5542 7.96032 13.4585 7.72265 13.2672 7.53065C13.0752 7.33932 12.8375 7.24365 12.5542 7.24365C12.2709 7.24365 12.0335 7.33932 11.8422 7.53065C11.6502 7.72265 11.5542 7.96032 11.5542 8.24365C11.5542 8.52699 11.6502 8.76432 11.8422 8.95565C12.0335 9.14765 12.2709 9.24365 12.5542 9.24365ZM12.5542 22.2437C11.1709 22.2437 9.87087 21.981 8.6542 21.4557C7.43753 20.931 6.3792 20.2187 5.4792 19.3187C4.5792 18.4187 3.86687 17.3603 3.3422 16.1437C2.81687 14.927 2.5542 13.627 2.5542 12.2437C2.5542 10.8603 2.81687 9.56032 3.3422 8.34365C3.86687 7.12699 4.5792 6.06865 5.4792 5.16865C6.3792 4.26865 7.43753 3.55599 8.6542 3.03065C9.87087 2.50599 11.1709 2.24365 12.5542 2.24365C13.9375 2.24365 15.2375 2.50599 16.4542 3.03065C17.6709 3.55599 18.7292 4.26865 19.6292 5.16865C20.5292 6.06865 21.2415 7.12699 21.7662 8.34365C22.2915 9.56032 22.5542 10.8603 22.5542 12.2437C22.5542 13.627 22.2915 14.927 21.7662 16.1437C21.2415 17.3603 20.5292 18.4187 19.6292 19.3187C18.7292 20.2187 17.6709 20.931 16.4542 21.4557C15.2375 21.981 13.9375 22.2437 12.5542 22.2437ZM12.5542 20.2437C14.7875 20.2437 16.6792 19.4687 18.2292 17.9187C19.7792 16.3687 20.5542 14.477 20.5542 12.2437C20.5542 10.0103 19.7792 8.11865 18.2292 6.56865C16.6792 5.01865 14.7875 4.24365 12.5542 4.24365C10.3209 4.24365 8.4292 5.01865 6.8792 6.56865C5.3292 8.11865 4.5542 10.0103 4.5542 12.2437C4.5542 14.477 5.3292 16.3687 6.8792 17.9187C8.4292 19.4687 10.3209 20.2437 12.5542 20.2437Z" fill="white"/>
</g>
</svg>
