<svg width="31" height="31" viewBox="0 0 31 31" fill="none" xmlns="http://www.w3.org/2000/svg">
<path d="M13.2583 22.5083L24.1271 11.6396L21.9688 9.48125L13.2583 18.1917L8.86458 13.7979L6.70625 15.9563L13.2583 22.5083ZM15.4167 30.8333C13.284 30.8333 11.2799 30.4284 9.40417 29.6185C7.52847 28.8096 5.89688 27.7115 4.50938 26.324C3.12188 24.9365 2.02369 23.3049 1.21483 21.4292C0.404945 19.5535 0 17.5493 0 15.4167C0 13.284 0.404945 11.2799 1.21483 9.40417C2.02369 7.52847 3.12188 5.89688 4.50938 4.50938C5.89688 3.12188 7.52847 2.02318 9.40417 1.21329C11.2799 0.404431 13.284 0 15.4167 0C17.5493 0 19.5535 0.404431 21.4292 1.21329C23.3049 2.02318 24.9365 3.12188 26.324 4.50938C27.7115 5.89688 28.8096 7.52847 29.6185 9.40417C30.4284 11.2799 30.8333 13.284 30.8333 15.4167C30.8333 17.5493 30.4284 19.5535 29.6185 21.4292C28.8096 23.3049 27.7115 24.9365 26.324 26.324C24.9365 27.7115 23.3049 28.8096 21.4292 29.6185C19.5535 30.4284 17.5493 30.8333 15.4167 30.8333ZM15.4167 27.75C18.8597 27.75 21.776 26.5552 24.1656 24.1656C26.5552 21.776 27.75 18.8597 27.75 15.4167C27.75 11.9736 26.5552 9.05729 24.1656 6.66771C21.776 4.27813 18.8597 3.08333 15.4167 3.08333C11.9736 3.08333 9.05729 4.27813 6.66771 6.66771C4.27813 9.05729 3.08333 11.9736 3.08333 15.4167C3.08333 18.8597 4.27813 21.776 6.66771 24.1656C9.05729 26.5552 11.9736 27.75 15.4167 27.75Z" fill="#00E05A"/>
</svg>
