<svg width="37" height="37" viewBox="0 0 37 37" fill="none" xmlns="http://www.w3.org/2000/svg">
<mask id="mask0_1145_23" style="mask-type:alpha" maskUnits="userSpaceOnUse" x="0" y="0" width="37" height="37">
<rect width="37" height="37" fill="#D9D9D9"/>
</mask>
<g mask="url(#mask0_1145_23)">
<path d="M20.6968 33.0686C20.1058 33.6596 19.3735 33.9551 18.4999 33.9551C17.6263 33.9551 16.894 33.6596 16.303 33.0686L3.93114 20.6968C3.34016 20.1058 3.04468 19.3735 3.04468 18.4999C3.04468 17.6263 3.34016 16.894 3.93114 16.303L16.303 3.93114C16.894 3.34016 17.6263 3.04468 18.4999 3.04468C19.3735 3.04468 20.1058 3.34016 20.6968 3.93114L33.0686 16.303C33.6596 16.894 33.9551 17.6263 33.9551 18.4999C33.9551 19.3735 33.6596 20.1058 33.0686 20.6968L20.6968 33.0686ZM18.4999 30.8718L30.8718 18.4999L18.4999 6.12801L6.12801 18.4999L18.4999 30.8718ZM16.9582 20.0416H20.0416V10.7916H16.9582V20.0416ZM18.4999 24.6666C18.9367 24.6666 19.3031 24.5186 19.5991 24.2226C19.8941 23.9276 20.0416 23.5617 20.0416 23.1249C20.0416 22.6881 19.8941 22.3217 19.5991 22.0257C19.3031 21.7307 18.9367 21.5832 18.4999 21.5832C18.0631 21.5832 17.6972 21.7307 17.4022 22.0257C17.1062 22.3217 16.9582 22.6881 16.9582 23.1249C16.9582 23.5617 17.1062 23.9276 17.4022 24.2226C17.6972 24.5186 18.0631 24.6666 18.4999 24.6666Z" fill="#FFD250"/>
</g>
</svg>
